<svg version="1.1" xmlns="http://www.w3.org/2000/svg" style="display: block;" viewBox="0 0 2048 1935" width="704" height="665" preserveAspectRatio="none">
<path transform="translate(0,0)" fill="rgb(253,252,253)" d="M 0 0 L 2048 0 L 2048 1935 L 0 1935 L 0 0 z"/>
<path transform="translate(0,0)" fill="rgb(5,4,5)" d="M 1688.88 511.931 C 1699.49 493.797 1710.24 482.535 1712.35 461.294 C 1712.71 457.703 1720.44 456.29 1722.81 455.295 C 1726.92 453.571 1721.89 450.474 1723.96 444.457 C 1732.27 437.335 1763.39 430.664 1774.62 428.891 C 1781.58 427.793 1787.86 431.84 1790.65 431.342 C 1797.41 430.081 1809.82 422.938 1816.41 423.256 C 1839.56 424.37 1900.16 427.217 1904.21 457.032 C 1905.5 466.501 1893.58 477.654 1887.18 484.457 C 1903.73 486.998 1916.73 492.366 1928.63 504.337 C 1951.68 527.543 1948.14 542.264 1948.63 571.381 C 1944.36 571.822 1933.72 571.796 1934.08 577.359 C 1938.93 581.846 1946.83 582.702 1951.83 586.037 C 1961.66 592.601 1961.69 609.097 1961.46 620.201 C 1961.18 633.824 1959.1 646.374 1951.9 658.513 C 1979.28 676.926 1988.42 699.684 1976.5 731.349 C 1979.46 735.878 1982.37 740.634 1979.72 745.955 C 1971.08 754.133 1954.69 744.867 1947.35 756.268 L 1945.79 756.567 C 1936.06 748.358 1936.28 727.733 1921.94 718.869 C 1903.45 707.439 1870.45 714.608 1850.1 718.372 C 1849.03 728.611 1847.27 757.319 1838.81 761.962 C 1831.59 762.881 1830.85 756.262 1822.68 759.583 C 1817.26 765.579 1819.94 770.844 1820.27 780.283 C 1812.54 784.25 1793.18 767.764 1783.68 764.482 C 1755.26 755.291 1724.48 770.813 1695.48 772.681 C 1662.91 774.777 1636.43 756.485 1635.55 721.8 C 1610.36 734.464 1603.83 719.836 1571.87 732.472 C 1583.32 717.53 1587.94 717.397 1604.93 712.186 C 1623.42 706.516 1625.87 668.466 1641.18 662.266 L 1642.64 663.141 L 1641.9 665.909 L 1642.58 669.324 L 1643.61 669.611 C 1644.94 666.733 1645.97 665.166 1646.03 661.982 C 1644.27 658.153 1645.59 659.467 1642.38 657.494 C 1640.7 657.45 1637.98 657.964 1636.81 659.148 C 1616.46 679.741 1593.52 690.476 1566.54 701.152 C 1511.85 722.8 1451.57 725.703 1394.72 740.596 C 1363.04 748.896 1337.12 759.599 1307.8 774.083 C 1326.09 775.229 1338.53 776.761 1357.55 775.867 C 1386.62 774.499 1411.31 768.304 1440.03 764.483 C 1483.34 759.139 1527.91 764.876 1570.54 773.001 C 1583.08 775.391 1597.97 793.243 1607.95 801.755 C 1622.56 814.21 1640.08 824.572 1652.62 838.867 C 1653.9 840.332 1653.28 841.589 1652.84 843.061 C 1648.38 845.931 1647.01 843.977 1643.2 845.807 C 1644.93 847.976 1666.63 855.248 1671.73 857.345 C 1706.68 871.716 1719.14 892.59 1732.72 925.974 C 1788.82 949.709 1895.45 934.95 1911.98 1008.24 C 1915.81 1025.22 1910.39 1079.74 1899.34 1093.15 C 1876.48 1120.9 1865.62 1149.4 1856.56 1184.04 C 1851.34 1204.05 1863.71 1243.63 1850.43 1258.41 C 1833.81 1276.9 1773.4 1292.64 1748.89 1296.47 C 1765.42 1328.62 1788.07 1340.49 1806.12 1369.19 C 1825.81 1402.07 1810.38 1441.42 1811.46 1477.08 C 1812.19 1501.03 1830.04 1523.45 1813.72 1545.25 C 1805.52 1556.2 1796.3 1561.71 1785.66 1569.05 C 1764.15 1583.9 1745.34 1587.72 1719.69 1583.85 C 1712.22 1582.95 1703.82 1582.62 1696.12 1583.69 C 1682.87 1585.53 1679.23 1598.32 1671.96 1608.19 C 1664.48 1618.34 1652.85 1624.5 1640.5 1626.99 C 1610.36 1633.07 1575.66 1626.5 1545.16 1623.91 C 1535.87 1623.12 1514.93 1621.21 1506.33 1619.51 C 1498.71 1618.01 1491.26 1615.75 1484.1 1612.76 C 1470.51 1607 1434.66 1579.83 1428.88 1580.81 C 1422.33 1589.19 1424.08 1603.02 1420.5 1614.05 C 1415.53 1629.38 1406.11 1638.81 1392.57 1646.1 C 1365.65 1663.6 1356.25 1637.85 1338.51 1634.27 C 1304.44 1627.39 1262 1621.52 1227.06 1618.02 C 1206.11 1615.92 1190.07 1619.45 1169.88 1613.64 C 1139.67 1604.95 1146.73 1574.81 1128.17 1555.16 C 1097.98 1520.49 1074.93 1514.66 1052.68 1472 C 1032.76 1541.34 1082.6 1586.37 1099.97 1647.11 C 1103.8 1660.59 1105.98 1674.5 1106.45 1688.51 C 1107.47 1717.75 1101.23 1765.02 1084.77 1790.16 C 1081.24 1795.55 1068.58 1801.02 1068.39 1802 C 1065.49 1816.72 1065.49 1823.83 1046.39 1829.02 C 1042.8 1838.19 1035.83 1860.75 1031.54 1867.52 L 1029.83 1867.83 C 1027.75 1866.54 1026.76 1865.51 1024.41 1865.69 C 1021.78 1869.03 1019.38 1873.15 1017.4 1876.94 C 1009.77 1891.56 1000.49 1904.84 991.813 1918.79 C 975.257 1876.84 939.209 1828.69 902.218 1800.41 C 901.224 1799.64 896.72 1799.62 895.254 1799.63 C 888.309 1791.9 883.073 1740.51 882.753 1728.36 L 870.213 1736.91 C 871.469 1701.03 876.276 1687.16 889.896 1654.82 C 869.864 1663.42 864.69 1668.84 851.366 1685.9 C 870.155 1621.74 888.879 1589.93 942.242 1548.11 C 940.953 1540.55 940.642 1534.72 940.187 1527.02 C 888.261 1557.02 831.405 1577.53 772.285 1587.6 C 755.812 1590.41 741.377 1592.75 724.632 1593.12 C 726.64 1575.87 728.02 1567.92 733.189 1551.34 C 719.92 1554.91 645.642 1566.39 640.198 1553.11 C 640.637 1543.87 650.232 1529.6 655.225 1521.13 C 654.136 1521.25 653.045 1521.36 651.954 1521.47 C 578.075 1528.34 485.57 1506.23 427.581 1458.15 C 447.921 1452.08 488.065 1449.38 505.273 1434.93 L 505.031 1433.58 L 499.32 1431.05 L 499.25 1429.84 C 508.434 1423.65 533.237 1412.2 543.911 1406.97 C 536.534 1401.65 530.79 1397.72 522.873 1393.2 C 538.604 1387.21 558.706 1376.04 575.861 1369.26 C 589.048 1364.05 611.189 1356.87 622.55 1351.48 C 582.151 1301.82 690.157 1280.57 720.138 1278.77 C 717.36 1273.98 714.384 1267.86 711.8 1262.84 C 753.092 1240.91 793.924 1231.47 840.606 1233.08 C 851.608 1196.89 862.858 1160.78 874.355 1124.75 C 881.666 1101.3 888.264 1076.33 897.355 1053.6 C 911.976 1017.04 939.028 997.56 977.629 1015.12 C 970.4 981.687 965.137 922.609 976.188 890.055 C 992.578 841.774 1029.66 869.558 1042.46 861.231 C 1058.66 850.699 1024.38 826.027 1026.52 809.719 C 1027.25 804.177 1031.05 798.995 1035.45 795.712 C 1060.61 776.944 1170.99 775.442 1204.1 779.903 C 1222.37 782.366 1242.19 789.78 1253.66 804.797 C 1273.1 775.392 1277.53 783.279 1303.23 771.037 C 1328.68 758.918 1347.29 749.082 1375.49 740.838 C 1462.34 715.447 1539.16 720.949 1617.53 669.467 C 1596.12 677.893 1588.09 677.865 1565.43 681.234 C 1557.11 682.472 1546.61 687.253 1537.14 687.261 C 1535.21 684.857 1535.71 686.229 1535.86 682.911 C 1540.4 675.897 1548.03 671.891 1552.54 665.89 C 1567.42 646.111 1573.29 626.727 1597.93 617.252 C 1623.87 625.886 1610.82 642.064 1636.51 654.572 C 1627.62 645.256 1620.94 634.071 1616.94 621.835 C 1610.16 600.952 1612.1 578.22 1622.29 558.778 C 1637.43 530.044 1660.32 520.846 1688.88 511.931 z"/>
<path transform="translate(0,0)" fill="rgb(253,252,253)" d="M 1647.63 699.868 C 1658.63 719.119 1669.39 728.93 1690.69 736.593 C 1743.57 755.621 1796.34 731.104 1847.76 719.195 C 1845.43 731.025 1842.65 749.304 1839.77 760.244 C 1819.45 750.394 1813.87 757.68 1817.02 779.168 L 1815.85 778.666 C 1801.41 772.36 1793.1 761.702 1776.37 758.924 C 1737.67 752.498 1696.29 783.41 1660.02 761.45 C 1644.46 752.029 1638.95 735.302 1638.88 718.048 C 1640.79 714.292 1642.66 710.696 1644.35 706.83 C 1645.16 703.417 1645.11 702.33 1647.63 699.868 z"/>
<path transform="translate(0,0)" fill="rgb(129,129,132)" d="M 1642.58 690.3 C 1641.1 685.168 1639.95 670.865 1641.9 665.909 L 1642.58 669.324 L 1643.61 669.611 C 1643.51 677.907 1643.63 683.817 1645.21 692.073 L 1642.58 690.3 z"/>
<path transform="translate(0,0)" fill="rgb(213,214,216)" d="M 1642.58 690.3 L 1645.21 692.073 L 1647.63 699.868 C 1645.11 702.33 1645.16 703.417 1644.35 706.83 C 1644.15 700.237 1643.64 696.829 1642.58 690.3 z"/>
<path transform="translate(0,0)" fill="rgb(253,252,253)" d="M 1290.96 1135.83 C 1318.55 1143.37 1359.03 1143.62 1377.49 1168.56 C 1384.31 1177.78 1384.91 1187.11 1383.04 1197.96 C 1390.94 1196.08 1397.96 1194.45 1406.13 1196.03 C 1422.09 1199.09 1437.06 1207.82 1451.33 1215.27 C 1466.66 1223.15 1481.81 1231.37 1496.76 1239.94 C 1524.28 1256 1550.38 1272.79 1580.85 1282.92 C 1563.95 1286.29 1549.73 1294.34 1535.31 1303.36 C 1515.28 1293.38 1498.71 1285.77 1476.15 1283.33 C 1454.88 1281.04 1433.52 1282.74 1412.19 1282.39 C 1395.32 1282.11 1376.58 1278.84 1359.94 1281.69 C 1350.32 1283.34 1341.9 1287.29 1334.31 1293.37 C 1349.02 1317.83 1369.85 1335.03 1391.64 1352.96 C 1420.35 1376.59 1449.04 1398.56 1484.23 1411.82 C 1531.26 1429.55 1585.63 1425.93 1626.05 1459.49 C 1636.73 1439.63 1650.82 1420.61 1662.8 1401.4 C 1676.46 1379.5 1691.49 1354.57 1684.97 1327.65 C 1680.18 1307.86 1665.3 1299.27 1649.38 1289.38 C 1672.17 1291.88 1694.09 1289.21 1716.67 1286.48 C 1727.4 1285.18 1739.13 1282.95 1749.91 1283.88 C 1753.28 1284.17 1756.31 1286.21 1759.16 1287.87 C 1755.19 1291.39 1747.23 1291.68 1742.13 1292.59 C 1754.65 1322.23 1774.6 1335.68 1793.54 1359.77 C 1824.04 1398.56 1803.33 1437.49 1806.4 1481 C 1807.5 1496.68 1817.53 1513.69 1815.38 1529.02 C 1813.7 1540.98 1803.97 1549.89 1794.8 1556.8 C 1778.33 1569.22 1759.4 1580.84 1738.12 1580.25 C 1729.2 1580 1720.27 1578.46 1711.35 1577.87 C 1704.35 1577.41 1695.95 1577.48 1689.34 1580.08 C 1675.54 1585.5 1671.9 1604.46 1660.11 1613.15 C 1634.3 1632.18 1589.09 1623.5 1559.35 1620.32 C 1542.27 1618.5 1525.11 1616.93 1508.14 1614.23 C 1495.59 1602.83 1492.8 1585.02 1478.29 1574.32 C 1456.77 1558.45 1427.19 1558.05 1406.72 1540.41 C 1389.8 1525.82 1382.27 1502.71 1364.65 1488.73 C 1352.85 1479.37 1341.69 1478.6 1327.4 1480.07 C 1338.1 1473.71 1348.82 1467.12 1358.55 1459.33 C 1374 1446.96 1387.01 1431.49 1389.17 1411.14 C 1393.78 1367.7 1352.55 1331.92 1327.95 1301.22 C 1294.84 1259.89 1301.8 1243.36 1306.65 1194.72 C 1308.81 1173.02 1305.03 1152.92 1290.96 1135.83 z"/>
<path transform="translate(0,0)" fill="rgb(253,252,253)" d="M 1108.35 999.446 C 1150.41 995.652 1218.07 1033.76 1249.96 1058.94 C 1245.98 1058.62 1241.81 1058.22 1237.87 1059.03 C 1234.36 1059.76 1230.82 1061.77 1228.89 1064.87 C 1226.52 1068.69 1227.08 1073.55 1228.36 1077.63 C 1236.72 1104.47 1264.02 1122.69 1287.53 1134.88 C 1292.75 1145.53 1298.15 1156.35 1300.51 1168.05 C 1307.16 1200.98 1289.78 1232.81 1300.92 1265.85 C 1314.34 1305.65 1355.63 1333.26 1374.94 1371.18 C 1383.07 1387.15 1387.18 1405.77 1381.08 1423.14 C 1370.89 1452.16 1334.96 1471.41 1308.55 1483.6 C 1300.36 1486.73 1290.34 1487.49 1281.65 1486.75 C 1268.46 1485.64 1255.18 1480.58 1242.67 1476.44 C 1192.5 1459.86 1129.91 1429.79 1103.13 1382.13 C 1098.29 1373.52 1085.07 1341.14 1082.16 1331.55 C 1078.28 1318.74 1076.63 1305.05 1069.84 1293.26 C 1063.25 1281.84 1052.8 1272.7 1044.43 1262.59 C 1035.13 1251.37 1028.41 1238.12 1030.18 1223.07 C 1031.74 1209.86 1040.18 1197.87 1050.48 1189.83 C 1044.43 1181.56 1039.31 1173.22 1035.58 1163.63 C 1029.08 1146.95 1026.54 1129.34 1033.8 1112.54 C 1039.12 1110.03 1044.53 1107.51 1047.51 1102.16 C 1052.34 1093.48 1050.39 1081.78 1051.2 1072.14 C 1052.33 1057.23 1056.97 1042.79 1064.74 1030 C 1075.02 1013.31 1089.48 1003.91 1108.35 999.446 z"/>
<path transform="translate(0,0)" fill="rgb(253,252,253)" d="M 1131.36 783.51 C 1162.98 782.396 1202.45 779.16 1231.35 793.445 C 1239.07 797.263 1245.28 802.299 1251.78 807.913 C 1250.45 811.168 1249.16 814.437 1248.09 817.791 C 1244 830.646 1242.96 843.016 1244.04 856.433 C 1248.9 916.775 1296.81 1041.15 1325.16 1096.44 C 1302.69 1081.73 1280.14 1070.68 1255.44 1060.21 C 1238.95 1033.3 1171.51 1007.4 1140.88 997.759 C 1137.75 996.897 1134.59 996.138 1131.41 995.483 C 1113.5 991.928 1095.59 995.751 1080.5 1006.05 C 1061.66 1018.91 1049.34 1042.67 1046.85 1065.08 C 1045.66 1075.74 1046.4 1086.6 1044.27 1097.16 C 1044.18 1097.57 1044.09 1097.98 1044 1098.4 C 1041.56 1101.17 1039.13 1104.71 1035.26 1105.4 C 1031.31 1106.1 1027.25 1103.68 1024.4 1101.17 C 1018.33 1095.83 1013.84 1087.82 1009.76 1080.94 C 991.112 1049.73 979.939 1014.64 977.117 978.393 C 974.75 951.379 971.401 896.472 989.73 875.744 C 1005.05 858.414 1020.39 869.525 1038.77 867.819 C 1042.63 867.46 1045.55 866.282 1048.06 863.219 C 1062.45 845.658 1033.33 829.002 1031.72 812.657 C 1031.36 808.942 1032.57 805.535 1035.01 802.737 C 1049.62 785.992 1109.71 784.831 1131.36 783.51 z"/>
<path transform="translate(0,0)" fill="rgb(253,252,253)" d="M 1734.19 931.467 C 1778.64 950.158 1832.37 945.402 1871.36 965.083 C 1886.67 972.808 1899.32 984.835 1904.73 1001.41 C 1912.09 1023.93 1907.2 1068.51 1895.8 1088.99 C 1889.47 1100.38 1880.26 1109.74 1874.05 1121.51 C 1865.4 1137.9 1858.78 1156.38 1853.7 1174.19 C 1851.1 1183.32 1849.92 1191.82 1849.95 1201.32 C 1850.01 1217.2 1855.52 1238.06 1847.77 1252.6 C 1837.74 1271.43 1785.1 1282.96 1764.44 1288.76 C 1763.42 1287.3 1762.41 1285.83 1761.33 1284.42 C 1759.22 1281.66 1757.06 1279.51 1753.47 1278.99 C 1740.53 1277.14 1725.27 1280.46 1712.28 1281.99 C 1688.56 1284.79 1665.24 1286.81 1641.42 1283.61 C 1634.53 1276.84 1628.27 1269.28 1621.85 1262.06 C 1601.82 1240.32 1571.27 1234.27 1545.76 1220.8 C 1569.22 1221.85 1638.12 1219.01 1658.74 1212.63 C 1669.36 1209.34 1679.02 1203.06 1687.71 1196.25 C 1709.81 1178.94 1753.52 1146.45 1767.7 1124.42 C 1771.66 1118.26 1774.12 1111.26 1774.9 1103.98 C 1775.67 1096.37 1774.35 1087.66 1769.18 1081.71 C 1765.26 1077.19 1759.08 1074.72 1753.17 1074.5 C 1735.75 1073.88 1723.4 1091.92 1712.01 1102.51 C 1705.09 1108.94 1698.32 1112.17 1688.82 1111.83 L 1687.79 1110.63 C 1692.31 1105.44 1697.9 1101.21 1703.08 1096.71 C 1715.76 1085.69 1727.19 1074.17 1735.48 1059.39 C 1740.58 1050.43 1743.93 1040.58 1745.34 1030.37 C 1749.11 1002.89 1741.72 958.393 1734.19 931.467 z"/>
<path transform="translate(0,0)" fill="rgb(253,252,253)" d="M 1077.71 1342.84 C 1082.64 1348.22 1084.94 1360.58 1088.33 1367.5 C 1095.11 1381.35 1103.15 1395.62 1111.94 1408.31 C 1146.58 1458.33 1205.08 1487.15 1264.8 1491.68 C 1273.9 1492.37 1283.26 1493.29 1292.38 1492.54 C 1310.36 1491.07 1329.53 1481.97 1347.63 1485.73 C 1373.05 1491.01 1384.1 1527.18 1402.41 1543.07 C 1425.4 1563.03 1462.23 1562.93 1481.9 1584.5 C 1489.12 1592.43 1493.04 1603 1499.01 1611.87 L 1499.72 1612.92 C 1474.92 1605.57 1457.84 1588.76 1435.28 1577.32 L 1426.82 1573.82 C 1415.24 1591.26 1420.45 1613.57 1406.42 1629.44 C 1399.56 1637.21 1386.05 1646.25 1375.53 1646.61 C 1363.92 1647 1354.85 1636.19 1344.79 1631.51 C 1338.79 1628.73 1332.3 1627.63 1325.81 1626.63 C 1295.01 1621.89 1263.91 1616.21 1232.88 1613.42 C 1215.68 1611.88 1198.05 1613.05 1180.98 1610.63 C 1175.09 1609.8 1166.7 1608.76 1161.89 1605.14 C 1148.97 1595.39 1145.03 1570.31 1135.44 1556.3 C 1123.69 1539.13 1105.08 1525.93 1089.84 1511.88 C 1082.33 1504.95 1074.42 1497.5 1068.49 1489.13 C 1053.4 1467.83 1045.58 1433.55 1044.68 1407.84 C 1043.78 1382.05 1060.91 1360.66 1077.71 1342.84 z"/>
<path transform="translate(0,0)" fill="rgb(253,252,253)" d="M 819.812 1237.46 L 838.825 1237.2 C 838.835 1239.96 838.74 1242.86 839.075 1245.59 C 839.284 1247.29 839.714 1248.76 840.464 1250.29 C 840.639 1250.65 840.815 1251.01 841.01 1251.35 C 843.066 1255.01 847.227 1258.87 851.116 1260.5 C 867.51 1267.37 886.013 1268.3 903.407 1271 C 928.716 1274.93 955.075 1280.14 978.916 1289.7 C 995.116 1296.2 1010.88 1305.12 1024.16 1316.52 C 1031.64 1322.95 1038.67 1330.01 1046.63 1335.85 L 1047.68 1336.61 C 974.139 1346.77 952.502 1393.41 894.145 1422.13 C 876.862 1430.64 862.471 1425.62 845.176 1419.78 C 823.253 1413.37 802.578 1400.9 781.258 1392.51 C 764.724 1386.01 747.004 1382.26 730.746 1375.15 C 718.699 1369.88 707.563 1362.74 695.067 1358.45 C 671.613 1350.41 648.033 1354.23 626.836 1347.58 C 626.457 1347.46 626.08 1347.34 625.702 1347.21 C 621.406 1342.15 618.367 1337.39 618.239 1330.52 C 618.124 1324.35 621.328 1318.87 625.605 1314.64 C 645.011 1295.47 702.371 1283.75 728.47 1283.77 C 725.499 1277.16 721.729 1270.86 718.194 1264.54 C 752.212 1248.12 782.433 1240.44 819.812 1237.46 z"/>
<path transform="translate(0,0)" fill="rgb(253,252,253)" d="M 1541.35 819.328 C 1547.55 818.956 1553.84 818.438 1560.03 819.051 C 1567.68 819.808 1575.07 821.903 1582.26 824.561 C 1595.96 829.628 1608.41 837.605 1621.85 843.332 C 1641.91 851.882 1664.44 857.847 1683.36 868.558 C 1692.23 873.583 1699.81 879.903 1706.26 887.804 C 1729.24 915.939 1735.03 952.937 1738.72 987.987 C 1740.15 1001.57 1741.54 1015.42 1740.08 1029.05 C 1736.77 1059.94 1712.04 1084 1688.97 1102.57 C 1673.27 1074.04 1645.29 1075.1 1633.93 1058.35 C 1629.33 1051.56 1628.54 1044.13 1627.75 1036.23 C 1627.12 1029.96 1625.86 1022.77 1626.41 1016.51 C 1627.48 1004.51 1643.75 978.827 1646.98 961.176 C 1647.94 955.963 1647.28 950.885 1643.93 946.64 C 1639.07 940.476 1629.33 937.426 1621.81 936.591 C 1612.9 935.827 1597.97 935.202 1590.59 940.764 C 1589.98 941.228 1588.48 942.371 1587.65 942.297 C 1576.39 941.291 1560.7 919.188 1530.45 922.438 C 1494.77 926.27 1487.36 966.979 1466.36 989.718 C 1456.18 1000.74 1438.59 1011.41 1430.92 1021.36 C 1426.94 1026.51 1428.59 1032.52 1429.47 1038.42 C 1426.19 1031.5 1421.29 1023.13 1421.44 1015.29 C 1421.6 1006.54 1429.94 1001.32 1436.57 997.18 C 1442.64 993.39 1449.42 989.873 1454.7 985.019 C 1470.62 970.383 1477.77 948.537 1494.19 933.706 C 1490.46 925.191 1484.95 917.568 1478.05 911.347 C 1462.78 897.68 1446.4 896.119 1426.74 897.276 C 1440.88 882.496 1451.84 863.671 1464.45 847.511 C 1467.66 843.396 1471.47 838.604 1476.25 836.317 C 1482.56 833.295 1490.72 833.168 1497.53 831.275 C 1512.54 827.104 1525.72 821.342 1541.35 819.328 z"/>
<path transform="translate(0,0)" fill="rgb(253,252,253)" d="M 948.436 1013.29 C 960.15 1012.31 969.642 1016.4 979.01 1022.93 C 990.246 1051.71 995.044 1070.65 1013.97 1096.78 C 1018.24 1102.68 1024.94 1106.31 1029.18 1112.17 C 1027.07 1116.04 1025.38 1119.65 1024.62 1124.02 C 1020.73 1146.6 1030.87 1170.15 1043.25 1188.36 C 1034.83 1196.82 1028.06 1207.7 1025.67 1219.48 C 1016.12 1266.72 1078.16 1280.69 1076.23 1337.32 C 1075.28 1338.34 1075.17 1338.89 1073.68 1339.06 C 1054.47 1341.19 1038.39 1321.81 1025.58 1310.49 C 990.894 1282.19 941.013 1271.14 897.596 1264.86 C 883.032 1262.76 864.411 1262.96 851.718 1255.09 C 848.492 1253.09 845.356 1250 844.548 1246.15 C 843.757 1242.39 844.936 1237.89 845.828 1234.2 C 852.857 1205.1 863.481 1176.05 872.447 1147.45 C 881.652 1118.09 889.765 1087.65 900.733 1058.91 C 903.909 1050.59 907.738 1042.48 912.867 1035.17 C 921.974 1022.18 932.923 1016.01 948.436 1013.29 z"/>
<path transform="translate(0,0)" fill="rgb(253,252,253)" d="M 1884.96 487.947 C 1908.12 489.331 1926.27 502.9 1938.24 522.28 C 1947.27 536.889 1945.03 552.117 1944.96 568.514 C 1939.38 569.045 1929.68 569.849 1929.72 577.006 C 1934.13 584.957 1940.06 583.718 1947.34 587.353 C 1960.13 593.739 1958.12 613.303 1957.61 625.565 C 1957.14 637.089 1954.55 647.22 1949.41 657.861 C 1929.55 646.901 1903.32 601.202 1889.94 580.247 C 1882.4 569.865 1873.55 558.985 1860.18 556.605 C 1856.26 555.907 1848.03 555.151 1844.78 557.677 C 1845.1 559.982 1845.93 561.393 1848.25 562.665 C 1862.42 570.429 1869.6 572.341 1882.76 582.375 C 1903.06 602.738 1910.08 625.854 1928.96 647.046 C 1943.13 662.96 1979.23 678.635 1976.48 704.575 C 1975.87 710.381 1975.63 741.31 1974.77 743.713 C 1966.91 749.112 1954.32 747.179 1944.11 750.646 C 1939.7 741.363 1937.54 730.671 1931.22 722.372 C 1906.27 689.629 1810.77 727.611 1776.64 734.891 C 1756.03 739.286 1734.51 742.066 1713.51 738.997 C 1693.24 736.036 1670.03 726.673 1657.58 709.645 C 1646.54 694.547 1645.42 679.107 1648.21 661.086 C 1660.66 661.323 1664.89 660.955 1676.31 656.547 C 1706.41 662.439 1735.07 675.834 1765.61 677.385 C 1793.5 678.801 1796.02 641.636 1804.35 620.914 C 1823.25 573.913 1849.8 524.712 1884.96 487.947 z"/>
<path transform="translate(0,0)" fill="rgb(253,252,253)" d="M 1365.75 1286.35 C 1379.72 1285.22 1394.27 1287.15 1408.31 1287.46 C 1438.75 1288.14 1470.1 1284.51 1499.75 1292.87 C 1520.1 1298.61 1553.32 1323.73 1573.01 1321.69 C 1575.65 1321.42 1576.47 1320.75 1577.94 1318.65 L 1577.07 1316.45 C 1569.22 1309.4 1554.5 1306.23 1544.6 1302.8 C 1587.47 1278.11 1595.06 1293.32 1636.04 1286.66 C 1652.59 1298.62 1674.28 1306.91 1679.98 1328.67 C 1685.48 1349.68 1674.91 1370.75 1664.81 1388.48 C 1652.33 1410.02 1638.19 1430.87 1624.66 1451.77 C 1588.4 1424.62 1540.94 1423.49 1498.83 1410.81 C 1484.06 1406.36 1469.89 1400.86 1456.39 1393.36 C 1425.22 1376.05 1356.93 1323.67 1340.89 1293.77 C 1349.13 1289.78 1356.66 1287.56 1365.75 1286.35 z"/>
<path transform="translate(0,0)" fill="rgb(253,252,253)" d="M 1459.74 767.411 C 1460.52 767.355 1461.29 767.306 1462.07 767.266 C 1485.37 766.033 1553.61 770.529 1574.1 779.968 C 1585.29 785.127 1595.56 798.054 1605.07 805.968 C 1619.38 817.88 1634.55 828.38 1648.5 840.813 C 1643.35 840.968 1637.81 841.315 1632.77 840.215 C 1612.05 835.697 1597.09 818.715 1570.27 814.59 C 1543.62 810.491 1516.21 817.153 1490.58 824.303 C 1483.34 826.323 1476.87 829.954 1469.3 830.894 C 1433.39 835.352 1397.45 830.759 1362.07 840.533 C 1338.39 847.076 1315.49 859.687 1303.25 881.821 C 1288.34 908.766 1291.74 939.754 1299.85 968.196 C 1307.35 992.094 1318.53 1014.67 1326.22 1038.5 C 1330.51 1051.8 1340.54 1089.37 1333.91 1102.21 L 1332.47 1101.89 C 1326.05 1091.66 1321.89 1078.04 1317.07 1066.84 C 1296.54 1019.13 1277.91 971.183 1263.47 921.23 C 1257.65 901.12 1251.63 879.888 1249.74 858.987 C 1247.77 837.276 1250.07 815.314 1264.65 798.077 C 1271.96 789.425 1281.34 782.864 1292.51 780.295 C 1305.07 777.405 1318.77 779.909 1331.49 780.683 C 1341.92 781.41 1352.39 781.433 1362.82 780.75 C 1395.35 778.401 1427.17 770.231 1459.74 767.411 z"/>
<path transform="translate(0,0)" fill="rgb(253,252,253)" d="M 1864.13 458.249 L 1865.05 458.376 C 1864.14 460.622 1833.15 477.354 1827.66 481.188 C 1813.63 490.993 1801.3 502.611 1791.9 516.994 C 1777.42 539.156 1764.51 574.485 1763.57 601.011 C 1763.1 614.443 1770.34 645.825 1765.51 655.998 C 1752.68 664.27 1724.45 650.225 1710.22 648.053 C 1698.45 646.258 1687.48 650.584 1675.94 651.496 C 1670.38 651.935 1664.53 651.122 1659.06 652.311 C 1655.38 653.113 1652.7 654.561 1649.69 656.801 C 1649.4 657.017 1649.12 657.24 1648.83 657.459 L 1639.73 652.239 C 1629.47 641.871 1622.1 629.64 1618.71 615.398 C 1613.61 594.804 1617.07 573.021 1628.3 555.02 C 1636.59 541.931 1649 531.517 1662.72 524.468 C 1678.4 516.411 1694.96 516.074 1711.04 510.395 C 1729.7 503.804 1747.94 495.483 1766.46 488.416 C 1798.08 476.348 1831.16 465.903 1864.13 458.249 z"/>
<path transform="translate(0,0)" fill="rgb(253,252,253)" d="M 1636.74 973.799 C 1637.76 987.33 1616.99 1014.85 1615.08 1032.87 C 1611.61 1065.59 1628.05 1096.04 1623.15 1128.58 C 1619.77 1151.02 1606.63 1171.98 1588.45 1185.41 C 1576.55 1194.21 1562.61 1201.62 1547.32 1199.04 C 1522.8 1194.89 1505.22 1172.57 1491.94 1153.44 C 1485.32 1143.38 1471.66 1124.05 1468.87 1112.78 C 1470.69 1111.97 1472.99 1111.13 1474.59 1109.93 C 1486.51 1100.97 1492.51 1013.92 1495.69 994.885 C 1499.45 1005.14 1505.06 1015.95 1513.14 1023.5 C 1523.97 1033.63 1536.71 1034.13 1550.66 1033.32 C 1601.13 1030.39 1606.31 1007.83 1636.74 973.799 z"/>
<path transform="translate(0,0)" fill="rgb(253,252,253)" d="M 631.281 1354.24 C 652.875 1354.14 680.875 1357.93 700.796 1366.25 C 711.973 1370.92 722.555 1376.96 733.765 1381.57 C 749.307 1387.96 765.719 1392.13 781.351 1398.37 C 812.996 1410.99 838.045 1425.37 872.242 1431.66 C 837.168 1443.49 802.472 1452.21 766.24 1459.75 C 740.866 1464.37 680.284 1475.44 657.32 1472.32 C 648.23 1471.09 639.591 1467.34 631.954 1462.34 C 615.185 1451.35 602.568 1435.65 587.614 1422.54 C 573.295 1409.98 558.439 1397.8 540.454 1391.03 C 568.384 1375.55 600.946 1364.16 631.281 1354.24 z"/>
<path transform="translate(0,0)" fill="rgb(253,252,253)" d="M 1002.94 1354.17 C 1002.98 1354.21 1003.05 1354.23 1003.07 1354.29 C 1004.4 1357.64 999.727 1372.4 999.264 1377.05 C 996.439 1405.42 998.63 1434.42 994.435 1462.56 C 988.677 1501.19 976.374 1517.06 945.937 1539.38 C 945.535 1532.46 945.096 1525.55 944.62 1518.64 C 898.495 1548.1 840.798 1569.52 787.219 1580.04 L 767.623 1584.17 C 788.979 1568.91 825.383 1537.23 841.562 1517.04 C 848.213 1508.87 853.584 1499.73 857.49 1489.95 C 864.133 1473.22 867.694 1451.84 878.703 1437.51 C 886.412 1427.49 903.962 1422.74 914.609 1415.7 C 944.677 1395.8 970.888 1371.13 1002.94 1354.17 z"/>
<path transform="translate(0,0)" fill="rgb(253,252,253)" d="M 1338.11 1105.5 C 1353.26 1061.42 1304.41 987.138 1299.38 941.597 C 1293.93 892.317 1310.95 861.99 1359.05 846.585 C 1394.84 835.119 1430.59 840.514 1467.02 836.141 C 1458 846.974 1428.42 886.592 1423.12 897.8 C 1379.94 916.769 1368.7 951.556 1371.36 996.965 C 1376.52 1004.35 1383.1 1009.95 1389.61 1016.17 C 1383.98 1041.15 1371.94 1050.55 1359.4 1071.09 C 1355.01 1078.29 1350.72 1086.72 1353.1 1095.3 C 1360.66 1122.52 1443.37 1176.31 1469.04 1190.75 L 1468.62 1193.49 C 1416.62 1169 1383.22 1140.19 1338.11 1105.5 z"/>
<path transform="translate(0,0)" fill="rgb(253,252,253)" d="M 870.68 1437.16 C 871.416 1437.71 870.957 1437.28 871.526 1438.85 C 859.465 1464.54 855.03 1493.36 836.366 1515.55 C 821.611 1533.09 777.478 1575.13 756.883 1583.41 C 748.454 1586.8 739.498 1587.4 730.539 1588.14 C 731.461 1572.25 736.023 1556.4 742.896 1542.1 C 717.492 1554.63 678.131 1554.59 649.875 1554.11 C 647.341 1553.4 647.038 1553.67 645.738 1551.44 C 646.729 1541.63 659.277 1524.24 664.025 1514.71 C 646.82 1519.01 626.92 1517.38 609.291 1516.92 C 632.73 1509.88 649.587 1494.35 666.884 1477.87 C 687.866 1475.26 708.969 1473.68 729.934 1470.76 C 777.401 1464.16 825.532 1453.32 870.68 1437.16 z"/>
<path transform="translate(0,0)" fill="rgb(253,252,253)" d="M 1001.54 1587.89 L 1002.39 1589.35 C 992.745 1624.46 984.126 1654.61 980.723 1691.34 C 980.188 1697.11 980.447 1705.87 978.135 1711.04 C 966.501 1737.04 925.77 1773.96 906.776 1797.81 L 905.81 1799.03 C 932.029 1784.38 961.181 1744.49 978.978 1719.82 C 979.071 1766.9 989.525 1813.57 991.819 1860.68 C 992.082 1874.36 990.618 1888.05 989.474 1901.66 C 986.848 1895.56 983.73 1889.57 980.448 1883.8 C 966.58 1859.43 924.496 1801.61 897.861 1794.32 C 894.962 1782.35 892.179 1770.32 890.455 1758.11 C 889.09 1748.45 889.376 1728.06 886.311 1720.58 C 882.107 1723.03 877.857 1725.4 873.563 1727.69 C 887.75 1712.7 899.576 1694.48 913.068 1678.66 C 940.641 1646.59 970.189 1616.27 1001.54 1587.89 z"/>
<path transform="translate(0,0)" fill="rgb(253,252,253)" d="M 1003.68 1602.89 C 1004.58 1603.92 1004.69 1605.51 1004.95 1606.86 C 1011.91 1642.38 1045.48 1661.26 1064.63 1689.64 C 1077.63 1708.89 1085.87 1732.08 1093.54 1753.9 C 1091.26 1765.79 1088.72 1778.72 1080.14 1787.9 C 1075.08 1793.33 1068.9 1795.58 1061.58 1795.65 C 1061.23 1795.65 1060.87 1795.64 1060.52 1795.64 C 1059.61 1796.73 1063 1807.91 1062.31 1811.32 C 1061.95 1813.11 1061.15 1814.71 1060.07 1816.17 C 1055.16 1822.78 1046.3 1819.93 1042.11 1826.48 C 1037.58 1833.55 1033.73 1857 1028.39 1860.48 C 1027.62 1858.07 1026.81 1855.81 1025.8 1853.5 L 1024.35 1853.52 C 1014.48 1872.35 1004.31 1890.7 992.924 1908.65 C 996.723 1887.43 997.407 1866.72 996.364 1845.25 C 995.282 1806.84 985.783 1768.74 984.713 1729.92 C 1001.3 1759.06 1018.81 1771.26 1039.83 1794.89 C 1046.74 1802.66 1052.53 1811.22 1058.25 1819.88 L 1057.06 1815.02 C 1051.78 1793.6 1030.1 1778.82 1015.63 1763.5 C 1005.88 1753.17 996.59 1741.47 989.812 1728.94 C 987.621 1724.89 985.515 1720.41 984.87 1715.83 C 981.094 1688.99 995.654 1629.78 1003.68 1602.89 z"/>
<path transform="translate(0,0)" fill="rgb(253,252,253)" d="M 1813.76 427.249 C 1830.16 426.174 1845.61 428.545 1861.59 432.033 C 1874.11 434.769 1891.17 438.25 1898.27 450.127 C 1900.08 453.156 1901.4 456.99 1900.45 460.514 C 1896.94 473.574 1875.29 492.858 1866.33 504.387 C 1858.62 514.475 1851.26 524.835 1844.28 535.446 C 1827.81 560.359 1814.06 586.966 1803.25 614.81 C 1797.75 628.927 1790.25 664.093 1777.95 671.229 C 1760.32 681.459 1702.88 658.767 1682.2 653.839 C 1689.51 652.156 1697.07 650.558 1704.61 650.992 C 1722.92 652.046 1741.69 663.709 1760.15 661.097 C 1763.95 660.56 1767.07 659.27 1769.31 656.008 C 1774.58 648.321 1768.83 625.265 1767.53 616.244 C 1766.68 609.237 1766.46 602.402 1767.2 595.369 C 1768.54 582.712 1772.33 570.383 1776.52 558.414 C 1788.12 525.33 1803.91 499.393 1834.19 480.282 C 1847.07 472.155 1864.15 465.715 1875.67 456.389 L 1874.72 454.496 C 1866.1 450.529 1777.09 480.873 1764.71 485.497 C 1741.99 493.983 1717.16 507.819 1693.32 511.086 C 1698.6 500.957 1706.25 491.951 1711.09 481.606 C 1713.74 475.946 1712.78 468.437 1715.7 463.334 C 1716.68 461.622 1717.4 460.634 1719.21 459.821 C 1725.87 456.843 1747.55 459.803 1759.11 456.557 C 1782.91 449.87 1790.25 432.44 1813.76 427.249 z"/>
<path transform="translate(0,0)" fill="rgb(253,252,253)" d="M 1238.87 1062.97 C 1288.94 1062.45 1389.98 1157.26 1438.93 1183.93 C 1455.06 1192.72 1472.56 1201.23 1490.3 1206.08 C 1501.94 1209.26 1514.23 1210.49 1525.51 1214.91 L 1526.75 1215.4 C 1545.53 1252.37 1619.55 1255.93 1630.49 1280.78 L 1629.8 1282.27 L 1625.05 1282.95 C 1611.55 1283.38 1598.51 1282.59 1585.44 1278.99 C 1554.29 1270.41 1526.6 1251.43 1498.95 1235.36 C 1483.47 1226.37 1467.51 1218.17 1451.62 1209.93 C 1438.51 1203.13 1424.96 1195.48 1410.58 1191.82 C 1404.04 1190.16 1398.14 1189.86 1391.42 1190.17 C 1386.78 1185.31 1389.78 1169.95 1372.83 1156.27 C 1334.7 1125.49 1282.63 1150.45 1242.45 1092.37 C 1238.42 1086.55 1230.97 1075.83 1232.31 1068.59 C 1234.06 1065.61 1235.88 1064.61 1238.87 1062.97 z"/>
<path transform="translate(0,0)" fill="rgb(253,252,253)" d="M 1042.93 1482.99 C 1042.72 1488.01 1008.33 1572.1 1005.23 1576.35 C 995.482 1589.72 969.492 1611.17 956.7 1624 C 927.816 1653.04 900.981 1684.04 876.39 1716.79 C 877.859 1702.63 881.815 1689.08 886.629 1675.75 C 890.598 1665.65 895.406 1656.23 900.8 1646.83 C 885.846 1650.5 875.508 1655.89 862.926 1664.8 C 878.65 1614.81 913.409 1569.34 959.06 1543 C 968.564 1537.52 978.763 1533.22 988.436 1528.03 C 1009.38 1516.74 1027.9 1501.43 1042.93 1482.99 z"/>
<path transform="translate(0,0)" fill="rgb(253,252,253)" d="M 1393 1019.69 C 1415.09 1045.75 1432.81 1075.71 1450.99 1104.54 C 1466 1128.35 1481.67 1151.97 1496 1176.18 C 1500.01 1182.94 1505.95 1193.46 1503.87 1201.43 C 1499.38 1202.66 1485.14 1193.77 1480.6 1191.44 C 1444.64 1171.7 1411.12 1149.34 1381.04 1121.38 C 1374.76 1115.55 1367.89 1109.7 1362.74 1102.82 C 1359.54 1098.53 1356.91 1093.23 1357.59 1087.73 C 1359.37 1073.33 1378.83 1054.43 1386.09 1041.38 C 1390.02 1034.33 1391.78 1027.6 1393 1019.69 z"/>
<path transform="translate(0,0)" fill="rgb(253,252,253)" d="M 1041.67 1500.86 L 1042.36 1501.66 C 1044.32 1515.16 1045.03 1528.24 1048.85 1541.54 C 1053.71 1558.48 1062.41 1574.96 1070.17 1590.7 C 1100.22 1651.72 1106.9 1676.96 1096.21 1745.44 C 1093.39 1738.02 1090.4 1730.65 1087.5 1723.27 C 1080 1705.52 1071.24 1688.35 1058.72 1673.56 C 1044.21 1656.42 1022.58 1640.79 1013.71 1619.83 C 1009.7 1610.33 1008.45 1598.92 1009.7 1588.73 C 1012.57 1565.2 1032.1 1524.11 1041.67 1500.86 z"/>
<path transform="translate(0,0)" fill="rgb(253,252,253)" d="M 1376.27 994.853 C 1373.78 949.74 1393.96 893.477 1450.57 902.975 C 1467.22 905.769 1479.39 918.581 1488.22 932.259 C 1473.25 947.948 1468.3 961.657 1454.33 977.868 C 1444.77 988.953 1420.28 998.942 1416.33 1009.65 C 1412.63 1019.65 1428.82 1049.58 1433.81 1060.11 L 1430.16 1061.75 C 1417.52 1042.61 1404.46 1023.47 1387.98 1007.38 C 1383.88 1003.38 1379.85 999.329 1376.27 994.853 z"/>
<path transform="translate(0,0)" fill="rgb(253,252,253)" d="M 1677.41 1112.05 C 1684.98 1116.03 1690.92 1118.21 1699.57 1115.71 C 1718.95 1110.11 1738.26 1070.7 1759.34 1081.18 C 1764.09 1083.55 1767.87 1087.41 1769.44 1092.54 C 1772.21 1101.54 1768.59 1112.29 1764.17 1120.18 C 1753.71 1138.79 1691.31 1189.56 1671.86 1201.39 C 1666.73 1204.51 1661.56 1206.7 1655.78 1208.27 C 1639.53 1212.7 1595.27 1216.04 1578.09 1215.08 C 1568.97 1216.82 1548.52 1216.09 1539.28 1215.47 C 1544.21 1214.03 1548.9 1213.76 1554.01 1213.23 C 1617.57 1200.28 1671.91 1187.87 1677.41 1112.05 z"/>
<path transform="translate(0,0)" fill="rgb(213,214,216)" d="M 1539.28 1215.47 C 1544.21 1214.03 1548.9 1213.76 1554.01 1213.23 C 1558.56 1216.32 1570.48 1213.87 1578.09 1215.08 C 1568.97 1216.82 1548.52 1216.09 1539.28 1215.47 z"/>
<path transform="translate(0,0)" fill="rgb(253,252,253)" d="M 1041.69 1342.28 C 1051.37 1341.31 1060.18 1341.83 1069.78 1343.39 C 1062.27 1352.34 1054.89 1361.51 1049.08 1371.68 C 1031.45 1402.54 1042.27 1434.31 1051.08 1466.23 C 1044.04 1473.37 1038.03 1481.48 1031.24 1488.86 C 1019.33 1501.79 1005.46 1512.34 990.583 1521.57 C 980.106 1527.89 968.515 1531.77 957.73 1537.53 C 1022.67 1485.08 989.932 1418.37 1009.62 1351.17 C 1020.19 1346.66 1030.38 1344.24 1041.69 1342.28 z"/>
<path transform="translate(0,0)" fill="rgb(253,252,253)" d="M 535.75 1394.2 C 561.239 1399.52 597.48 1441.04 618.205 1457.84 C 625.918 1464.1 633.852 1469.08 642.724 1473.52 C 607.865 1475.18 573.303 1474.22 538.502 1471.71 C 508.049 1468.97 477.736 1464.84 447.658 1459.34 C 470.179 1454.56 497.532 1448.99 516.027 1434.87 L 515.778 1433.56 C 513.695 1432.74 512.125 1432.21 510.475 1430.65 C 514.398 1425.04 544.697 1411.54 552.652 1407.5 C 547.052 1403.09 540.755 1399.28 535.75 1394.2 z"/>
<path transform="translate(0,0)" fill="rgb(253,252,253)" d="M 1619.49 1045.58 L 1622.94 1042.77 C 1630.91 1079.07 1643.86 1067.66 1665.76 1084.9 C 1665.05 1096.44 1669.61 1101.15 1671.03 1111.43 C 1674.12 1133.8 1661.31 1159.32 1645.35 1173.9 C 1638.7 1179.99 1631.15 1185.02 1622.97 1188.81 C 1602.97 1198.13 1556.27 1209.86 1532.87 1210.52 C 1528.51 1210.64 1514.44 1205.96 1508.83 1204.8 C 1510.42 1193.8 1508.69 1188.57 1504.37 1178.15 C 1535.18 1210.49 1566.96 1214.04 1600.25 1182.03 C 1618.28 1164.69 1628.91 1141.01 1629.56 1115.93 C 1629.86 1093.26 1620.04 1067.74 1619.49 1045.58 z"/>
<path transform="translate(0,0)" fill="rgb(253,252,253)" d="M 439.841 1462.01 C 459.461 1467.41 480.24 1470.01 500.411 1472.44 C 553.992 1478.9 606.197 1480.15 660.091 1477.97 C 653.612 1483.88 647 1489.65 640.258 1495.26 C 629.148 1503.95 614.681 1512.86 600.426 1514.62 C 557.992 1519.84 473.372 1488.59 439.841 1462.01 z"/>
<path transform="translate(0,0)" fill="rgb(253,252,253)" d="M 1526.92 928.198 C 1529.58 927.952 1530.34 927.444 1532.55 929.056 L 1533.78 928.387 C 1471.35 955.962 1495.78 1056.39 1470.4 1108 C 1466.56 1102.21 1463.58 1095.87 1460.46 1089.68 C 1453.42 1076.02 1438.01 1046.66 1434.57 1032.94 C 1433.69 1029.45 1433.73 1026.84 1435.83 1023.81 C 1441.25 1015.98 1452.49 1010.83 1459.35 1004.04 C 1475.4 988.167 1485.64 970.541 1497.32 951.596 C 1504.66 939.69 1512.97 931.487 1526.92 928.198 z"/>
<path transform="translate(0,0)" fill="rgb(253,252,253)" d="M 1541.23 973.412 C 1549.22 973.168 1556.11 973.606 1563.61 976.849 C 1572.1 980.522 1580.76 987.47 1584.05 996.4 C 1585.79 1001.04 1585.51 1006.2 1583.28 1010.62 C 1579.76 1017.41 1568.19 1020.84 1561.32 1022.92 C 1548.15 1026.89 1535.12 1027.86 1522.67 1021.22 C 1519.41 1018.64 1515.88 1015.52 1514.32 1011.56 C 1513.14 1008.57 1512.97 1006.37 1514.29 1003.54 C 1518.23 1002.67 1522.46 1005.08 1526.09 1006.65 L 1526.07 1005.36 C 1523.93 1002.27 1522.14 999.94 1519.14 997.665 C 1510.71 995.979 1512.43 1003.51 1506.46 1005.32 C 1502.31 1002.33 1501.67 993.533 1500.8 988.729 C 1511.38 976.814 1526.24 974.987 1541.23 973.412 z"/>
<path transform="translate(0,0)" fill="rgb(253,252,253)" d="M 1536.45 933.166 C 1537.07 933.165 1537.68 933.171 1538.3 933.183 C 1554.62 933.627 1591.69 958.174 1602.71 970.161 C 1606.47 974.25 1609.18 978.881 1608.65 984.595 C 1607.63 995.483 1598.27 1002.94 1590.55 1009.52 C 1590.39 999.976 1588.13 993.213 1583.21 985.176 C 1576.54 977.114 1568.43 971.843 1558.19 969.386 C 1538.58 964.685 1515.55 971.503 1498.99 982.097 C 1501.54 974.674 1504.08 967.338 1507.76 960.383 C 1514.24 948.149 1522.76 937.387 1536.45 933.166 z"/>
<path transform="translate(0,0)" fill="rgb(253,252,253)" d="M 1596.37 620.922 C 1617.81 625.298 1613.05 649.195 1634.11 655.524 C 1627.37 658.716 1621.11 662.977 1614.49 666.432 C 1598.91 674.56 1584.22 675.309 1567.01 677.083 C 1556.67 678.912 1546.15 682.914 1536.04 685.924 C 1543.21 679.818 1549.99 673.729 1555.75 666.234 C 1568.62 649.497 1576.62 630.942 1596.37 620.922 z"/>
<path transform="translate(0,0)" fill="rgb(253,252,253)" d="M 1637.1 668.571 C 1640.19 678.344 1640.8 697.361 1640.67 707.858 C 1639.46 710.049 1638.26 712.401 1636.78 714.417 C 1625.38 729.93 1605.51 721.195 1589.53 723.784 L 1588.22 724.009 C 1586.32 724.231 1586.22 724.499 1584.43 723.569 C 1588.62 717.532 1608.47 716.689 1616.97 707.574 C 1626.65 697.186 1628.95 681.67 1636.38 669.722 L 1637.1 668.571 z"/>
<path transform="translate(0,0)" fill="rgb(253,252,253)" d="M 1592.75 947.201 C 1601.92 947.588 1630.06 945.774 1636.48 950.927 C 1638.56 952.598 1639.4 954.095 1639.68 956.748 C 1640.54 964.731 1631.61 972.434 1626.74 977.556 C 1622.65 981.875 1619.11 987.062 1615.49 991.801 L 1615.39 989.895 C 1614.43 971.018 1606.3 959.452 1592.75 947.201 z"/>
<path transform="translate(0,0)" fill="rgb(253,252,253)" d="M 1774.41 432.29 C 1776.24 432.173 1778.11 432.006 1779.94 432.066 C 1782.51 432.15 1783.81 432.26 1785.6 434.109 C 1785.14 435.993 1784.42 437.046 1783.06 438.374 C 1771.71 449.455 1756.62 452.795 1741.32 452.822 C 1736.57 452.614 1731.26 453.072 1727.58 449.611 L 1727.56 447.498 C 1735.77 438.587 1762.5 434.26 1774.41 432.29 z"/>
<path transform="translate(0,0)" fill="rgb(253,252,253)" d="M 1139.54 1428.94 C 1177.4 1459.89 1209.41 1468.04 1252.8 1485.34 C 1205.94 1477.75 1174.97 1464.15 1138.88 1432.38 L 1139.54 1428.94 z"/>
<path transform="translate(0,0)" fill="rgb(253,252,253)" d="M 1536.11 1220.86 C 1543.33 1225.14 1550.57 1229.22 1558.3 1232.51 C 1575.72 1239.93 1596.12 1245.23 1610.5 1258.01 C 1604.61 1256.88 1598.22 1253.59 1592.6 1251.41 C 1573.95 1244.17 1549.07 1236.99 1536.11 1220.86 z"/>
<path transform="translate(0,0)" fill="rgb(253,252,253)" d="M 1848.15 559.311 C 1851.81 558.839 1855.83 558.792 1859.47 559.467 C 1870.62 561.535 1879.91 571.164 1886.18 580.115 C 1879.94 577.395 1873.91 571.867 1867.73 568.493 C 1861.4 565.044 1854.09 563.161 1848.15 559.311 z"/>
<path transform="translate(0,0)" fill="rgb(163,163,163)" d="M 1552.92 930.214 C 1568.65 933.748 1586.7 946.502 1597.33 958.29 C 1596.16 957.924 1555.79 932.391 1552.92 930.214 z"/>
<path transform="translate(0,0)" fill="rgb(213,214,216)" d="M 1433.81 1060.11 L 1444.6 1081.05 L 1442.55 1082.61 C 1438.9 1075.97 1434.09 1068.36 1430.16 1061.75 L 1433.81 1060.11 z"/>
<path transform="translate(0,0)" fill="rgb(253,252,253)" d="M 1673.97 1092.49 C 1675.06 1093.1 1676.05 1093.66 1676.96 1094.53 C 1681.26 1098.59 1683.89 1104.11 1684.32 1110.01 C 1683.05 1109.42 1682.94 1109.41 1681.61 1108.57 C 1675.9 1104.97 1675.27 1098.54 1673.97 1092.49 z"/>
<path transform="translate(0,0)" fill="rgb(213,214,216)" d="M 1600.27 941.533 C 1609.5 939.871 1619.12 940.107 1628.1 942.829 C 1619.86 943.226 1607.84 944.973 1600.27 941.533 z"/>
<path transform="translate(0,0)" fill="rgb(213,214,216)" d="M 1587.03 1017.2 C 1587.46 1018.24 1587.29 1017.53 1586.82 1019.36 C 1581.74 1023.56 1575.76 1025.07 1569.47 1026.45 L 1568.85 1025.84 C 1572.44 1022.16 1582.09 1019.34 1587.03 1017.2 z"/>
<path transform="translate(0,0)" fill="rgb(129,129,132)" d="M 1444.6 1081.05 L 1453.06 1095.48 L 1452.07 1097.56 L 1453.7 1098.65 L 1453.83 1097.45 L 1452.99 1098.35 C 1448.16 1092.45 1446.42 1089.26 1442.55 1082.61 L 1444.6 1081.05 z"/>
<path transform="translate(0,0)" fill="rgb(253,252,253)" d="M 1619.49 1045.58 C 1619.53 1038.48 1620.33 1034.59 1621.57 1027.6 C 1622.33 1032.37 1622.58 1037.89 1622.94 1042.77 L 1619.49 1045.58 z"/>
<path transform="translate(0,0)" fill="rgb(163,163,163)" d="M 1124.76 1416.54 C 1129.91 1420.62 1134.57 1424.63 1139.54 1428.94 L 1138.88 1432.38 C 1133.37 1426.75 1129.72 1422.66 1124.76 1416.54 z"/>
<path transform="translate(0,0)" fill="rgb(163,163,163)" d="M 1469.04 1190.75 C 1475.32 1193.28 1479.53 1195.61 1485.5 1198.87 C 1479.62 1197.66 1474.27 1195.52 1468.62 1193.49 L 1469.04 1190.75 z"/>
<path transform="translate(0,0)" fill="rgb(213,214,216)" d="M 1657.11 655.609 C 1660.74 655.145 1664.82 654.152 1668.37 655.247 L 1668.43 656.598 C 1664.81 657.228 1661.04 658.262 1657.4 657.479 L 1657.11 655.609 z"/>
<path transform="translate(0,0)" fill="rgb(5,4,5)" d="M 77.426 193.167 C 138.183 192.62 178.659 201.101 235.153 221.881 C 230.2 214.427 225.431 206.852 220.851 199.163 C 242.523 217.242 249.656 220.987 278.461 220.319 C 283.398 220.205 294.132 221.296 298.446 223.187 C 305.835 226.425 312.78 232.251 320.411 236.637 C 326.079 235.301 332.138 233.604 337.987 234.366 C 361.135 237.381 390.736 269.259 414.565 277.821 C 424.342 281.334 434.802 280.368 444.975 281.515 C 456.182 282.778 464.604 287.627 471.441 296.482 C 483.492 312.089 516.139 385.197 512.384 403.579 C 510.412 413.236 472.183 429.936 462.449 435.932 L 461.4 436.587 C 480.726 430.67 494.398 426.104 515.504 424.025 C 557.84 419.856 602.152 427.356 630.239 462.326 C 634.864 468.167 642.639 486.503 649.784 489.408 C 665.479 495.79 683.244 492.561 699.418 498.8 C 776.548 528.552 811.549 609.006 819.045 685.854 C 819.897 690.42 819.869 697.055 821.731 700.066 C 826.787 679.083 836.977 676.349 857.04 682.427 C 888.037 691.817 919.961 709.654 938.833 736.707 L 941.568 735.895 C 944.833 740.579 947.08 744.146 949.966 749.058 L 949.069 753.186 C 964.034 787.706 964.338 825.27 938.955 855.666 C 932.574 863.307 917.269 874.387 914.388 883.67 C 907.754 905.045 911.62 929.542 905.672 951.454 C 892.687 1006.4 860.716 1059.58 813.897 1091.97 C 803.018 1099.49 791.106 1101.48 778.49 1098.57 C 760.223 1123.12 739.596 1148.41 711.717 1162.24 C 691.866 1172.08 674.906 1172.46 653.329 1173.77 C 659.02 1178.81 663.561 1183.59 664.432 1191.75 C 666.211 1208.42 646.667 1218.95 641.016 1230.88 C 639.279 1234.55 634.394 1251.24 632.61 1256.4 C 623.977 1281.36 615.085 1298.03 598.9 1318.51 C 561.931 1365.31 517.984 1343.14 467.09 1349.45 C 450.748 1351.48 415.111 1355.78 402.332 1367.43 C 398.412 1371.01 394.304 1379.41 390.565 1383.96 C 385.259 1390.42 375.743 1388.17 368.47 1386.99 C 361.903 1385.93 353.142 1383.53 346.539 1383.65 C 325.668 1384.03 307.166 1395.67 285.879 1396.47 C 262.936 1397.34 241.364 1387.3 226.925 1369.55 C 219.072 1359.89 212.033 1348.7 202.392 1341.14 C 185.502 1327.9 164.021 1319.64 148.384 1304.92 C 128.341 1286.04 119.172 1263.53 125.674 1236.32 C 127.799 1227.43 130.748 1214.12 130.325 1204.76 C 129.22 1180.35 105.081 1180.19 90.7178 1166.61 C 75.4835 1152.2 61.1882 1120.05 59.9685 1099.1 C 59.5471 1091.86 62.9908 1088.05 67.7937 1083.41 C 58.2411 1068.57 49.0648 1052.1 40.6187 1036.53 C 26.5885 1010.68 5.72715 982.141 10.3715 951.303 C 11.4276 944.29 17.3788 937.998 21.8515 932.755 C 12.1877 956.675 10.3988 967.308 21.7365 992.012 C 25.2776 999.728 29.1151 1007.91 33.7578 1015.2 C 49.8067 1040.43 60.9117 1071.59 82.1052 1092.84 C 92.3583 1102.36 139.527 1108.96 154.6 1113.47 C 184.813 1121.94 213.826 1133.46 240.815 1149.38 C 264.261 1163.21 291.872 1184.66 320.172 1183.07 C 350.051 1181.39 377.069 1174.66 407.559 1177.39 C 443.574 1180.63 468.075 1207.8 505.033 1204.42 C 539.919 1206.08 586.971 1178.35 618.056 1174.55 C 706.765 1163.69 717.118 1170.72 776.392 1094.22 C 800.21 1099.57 813.872 1088.69 830.563 1073.44 C 864.475 1042.47 891.688 996.453 901.202 951.422 C 902.937 943.135 904.215 934.76 905.03 926.333 C 906.029 915.04 906.143 893.684 909.725 884.115 C 914.65 870.962 930.063 860.858 938.948 848.769 C 953.253 829.307 957.508 806.199 953.826 782.357 C 949.19 752.337 931.311 729.17 906.893 711.191 C 889.924 698.957 858.876 683.94 837.998 684.234 C 823.335 684.441 824.483 723.938 823.096 735.17 C 819.039 768.036 812.942 804.659 796.014 833.539 C 787.612 847.873 776.836 852.284 761.501 855.491 C 770.441 846.614 778.388 836.791 785.203 826.195 C 846.84 730.816 813.68 541.869 695.043 502.216 C 679.203 496.921 661.93 499.741 647.431 492.99 C 637.467 486.592 632.45 472.675 625.454 463.751 C 596.19 425.95 536.731 421.815 493.573 431.906 C 421.843 448.678 357.396 502.929 332.283 572.747 C 329.152 581.451 327.35 591.637 338.839 594.375 C 350.201 597.082 362.261 596.171 373.632 599.102 C 391.034 603.775 407.034 613.472 423.708 620.178 C 460.812 635.8 479.575 621.818 513.838 607.154 C 532.296 599.254 551.784 599.411 570.23 607.472 C 597.331 619.316 618.622 644.591 636.937 666.614 C 671.327 707.971 697.659 729.738 688.214 787.654 C 685.391 807.154 681.865 826.37 682.887 846.172 C 683.672 860.119 681.396 875.76 690.992 887.334 C 708.628 908.606 726.772 898.377 739.081 878.644 C 742.601 873.001 752.968 854.481 759.663 858.624 C 762.474 864.296 762.344 871.96 762.272 878.223 C 761.976 897.936 761.117 919.19 755.001 938.04 C 737.055 993.348 682.601 1033.26 633.962 1060.67 C 629.903 1062.31 625.005 1060.7 620.771 1062.01 C 535.525 1088.23 447.242 1056.72 360.726 1059.12 C 352.518 1059.35 329.821 1062.72 323.177 1060.5 C 302.507 1053.58 297.212 1021.5 271.508 1020.53 C 249.716 1017.54 237.015 1020.41 215.802 1022.22 C 176.332 1025.58 132.703 1024.06 96.0141 1008.08 C 65.5503 994.812 37.5386 972.611 25.3214 940.901 C 14.4748 912.748 16.313 878.864 35.9151 854.909 C 44.1776 844.811 54.105 836.25 59.3617 824.215 C 64.6874 812.023 59.3246 805.354 55.0473 793.889 C 45.7619 768.999 48.1051 741.31 58.4929 717.296 C 76.4643 675.749 114.276 649.89 155.198 633.964 C 168.236 628.9 181.616 624.768 195.239 621.601 C 226.892 614.083 318.386 598.576 347.61 603.871 C 370.135 607.952 390.196 620.19 410.931 629.215 C 428.096 636.686 441.201 638.955 459.054 631.991 C 425.59 630.597 408.209 615.718 377.964 604.635 C 352.363 595.253 311.369 611.031 330.696 565.343 C 323.467 565.807 316.218 565.86 308.983 565.503 C 250.085 562.684 194.633 542.073 151.037 501.779 C 141.281 492.762 134.786 484.371 126.029 474.681 C 131.873 475.482 137.721 475.691 143.612 476.019 C 138.235 467.257 123.207 445.198 122.225 436.635 C 124.334 433.134 124.715 434.253 129.272 432.018 C 124.8 419.084 121.101 410.73 118.647 396.803 C 113.404 367.048 115.824 337.891 111.775 307.793 C 106.185 266.247 91.8709 231.846 77.426 193.167 z"/>
<path transform="translate(0,0)" fill="rgb(213,214,216)" d="M 941.568 735.895 C 944.833 740.579 947.08 744.146 949.966 749.058 L 949.069 753.186 C 945.446 746.545 943.178 742.904 938.833 736.707 L 941.568 735.895 z"/>
<path transform="translate(0,0)" fill="rgb(129,129,132)" d="M 819.045 685.854 C 819.897 690.42 819.869 697.055 821.731 700.066 C 821.968 702.049 822.04 704.9 820.983 706.591 C 818.894 698.864 818.955 693.651 819.045 685.854 z"/>
<path transform="translate(0,0)" fill="rgb(253,252,253)" d="M 68.7127 1086.45 C 74.4842 1089.62 78.1096 1096.24 84.3766 1099.44 C 100.669 1107.78 122.037 1109.98 139.82 1114.12 C 152.412 1117.06 164.738 1120.9 177.016 1124.93 C 172.335 1125.61 167.357 1126.11 162.996 1128.03 C 158.24 1130.13 153.54 1133.65 151.714 1138.7 C 149.83 1143.91 151.14 1149.66 153.442 1154.51 C 167.038 1183.16 199.215 1205.3 228.514 1215.04 C 271.88 1229.46 306.322 1218.11 347.913 1205.56 C 363.774 1200.77 380.004 1196.61 396.69 1196.71 C 415.935 1196.82 434.303 1203.24 452.501 1208.77 C 484.116 1218.38 516.924 1223.76 549.886 1218.7 C 571.949 1215.31 589.921 1207.49 607.57 1193.81 C 614.364 1188.54 621.202 1182.59 629.016 1178.89 C 634.774 1176.18 642.52 1174.51 648.672 1176.86 C 652.758 1178.42 656.351 1182.02 658.038 1186.04 C 660.225 1191.26 659.529 1197.27 657.603 1202.45 C 654.757 1210.11 646.897 1216.16 641.596 1222.19 C 632.8 1232.2 627.916 1259.32 621.687 1273.26 C 617.561 1282.45 612.719 1291.3 607.207 1299.73 C 574.702 1350.27 551.311 1345.45 496.643 1344.22 C 476.393 1343.61 456.148 1345.6 436.407 1350.15 C 425.741 1352.5 404.173 1355.97 397.597 1365.22 C 394.594 1369.45 392.85 1374.54 389.904 1378.81 C 386.4 1383.88 380.041 1384.07 374.435 1383.66 C 365.706 1383.03 357.126 1379.95 348.366 1379.55 C 330.25 1378.72 314.171 1388.01 296.791 1391.17 C 273.093 1395.47 248.669 1388.26 232.86 1369.6 C 224.402 1359.62 217.38 1348.26 207.425 1339.64 C 193.6 1327.67 176.243 1320.68 161.419 1310.12 C 138.01 1293.46 123.815 1269.19 129.447 1240.06 C 131.956 1227.08 136.68 1212.9 134.115 1199.63 C 130.272 1179.76 113.252 1176.88 98.7828 1167.34 C 81.0382 1155.64 69.3074 1126.67 65.1936 1106.74 C 63.3878 1098 63.7651 1093.85 68.7127 1086.45 z"/>
<path transform="translate(0,0)" fill="rgb(253,252,253)" d="M 318.069 624.417 C 319.259 624.252 320.381 624.2 321.581 624.154 C 332.862 623.725 344.175 623.749 355.406 625.026 C 379.033 627.713 426.222 638.656 447.174 648.688 C 455.788 652.813 462.695 657.799 469.685 664.264 C 463.69 663.605 457.59 663.049 451.562 662.894 C 401.596 661.607 387.18 713.124 356.614 742.118 C 333.524 738.775 310.871 740.623 289.69 750.962 C 261.481 764.732 237.044 797.817 227.234 827.333 C 220.733 846.895 224.654 866.559 233.749 884.573 C 237.761 892.52 242.801 899.934 247.736 907.329 C 253.802 916.417 259.987 925.741 268.578 932.673 C 285.057 945.97 329.391 955.998 350.756 963.029 C 359.67 966.047 368.751 968.636 377.758 971.366 C 364.083 973.711 350.068 973.393 336.478 976.562 C 320.959 980.18 306.993 988.694 290.956 990.337 C 259.366 993.573 226.455 976.403 202.738 957.079 C 162.643 924.409 129.78 870.834 124.742 819.009 C 120.459 774.947 140.294 727.092 168.147 693.596 C 178.144 681.623 189.924 671.26 203.073 662.87 C 231.054 645.264 285.1 627.357 318.069 624.417 z"/>
<path transform="translate(0,0)" fill="rgb(253,252,253)" d="M 316.545 607.398 C 348.983 604.183 375.259 615.819 403.342 630.517 C 334.647 612.729 283.452 619.248 219.46 649.406 C 174.927 670.393 145.359 709.602 129.063 755.373 C 114.156 797.243 118.435 839.748 137.722 879.491 C 159.277 923.905 196.239 967.763 242.856 986.457 C 254.579 991.159 265.881 991.533 277.24 995.495 C 278.002 997.021 278.935 999.606 279.952 1000.89 C 281.736 1003.15 288.076 1005.98 290.731 1007.5 C 302.185 1014.09 346.411 1035.35 350.413 1045.89 C 351.227 1048.03 351.244 1050.16 349.848 1052.1 C 346.484 1056.76 338.228 1057.06 333.03 1057.64 C 308.149 1056.29 303.112 1024.63 278.183 1017.44 C 262.285 1012.86 242.521 1015.76 226.148 1016.96 C 168.735 1021.17 108.383 1021.33 61.4166 982.334 C 40.6046 965.052 26.1695 941.52 23.6947 914.292 C 20.2646 876.556 33.8306 865.456 55.8202 838.417 C 76.8283 812.585 56.2766 795.641 53.8634 768.081 C 51.2978 738.781 62.9782 710.26 81.598 688.06 C 125.214 636.058 198.32 622.947 261.959 614.333 C 280.114 611.876 298.301 609.087 316.545 607.398 z"/>
<path transform="translate(0,0)" fill="rgb(253,252,253)" d="M 533.903 739.855 C 574.93 752.945 600.451 770.566 622.53 809.724 C 635.723 833.121 629.12 861.769 625.236 887.656 L 617.289 941.846 C 611.862 978.41 603.056 1024.18 622.77 1057.68 C 604.498 1062.16 589.363 1066.05 570.403 1067.45 C 518.849 1071.24 468.44 1061.9 417.304 1056.94 C 395.655 1054.85 376.696 1054.64 355.038 1055.26 C 354.192 1049.56 358.089 1046.91 353.732 1041.72 C 343.482 1029.52 326.188 1023.54 312.997 1015.05 L 314.616 1012.14 C 326.357 1014.73 336.512 1016.97 347.419 1009.54 C 360.367 1000.73 368.671 984.691 382.233 976.467 C 389.499 972.061 400.15 969.862 407.184 965.383 C 413.582 961.267 419.887 953.289 427.05 950.619 C 445.272 943.796 466.436 940.632 483.17 930.447 C 499.358 920.595 514.165 905.132 527.68 891.753 C 549.526 870.127 572.265 848.825 593.634 826.761 C 601.785 818.345 607.085 806.922 600.297 796.107 C 593.219 786.302 571.656 786.562 560.713 786.959 C 551.426 787.296 540.926 790.174 533.466 783.432 C 530.879 778.911 534.032 748.661 533.903 739.855 z"/>
<path transform="translate(0,0)" fill="rgb(253,252,253)" d="M 524.571 618.4 C 537.691 617.36 549.13 617.673 561.246 623.317 C 610.011 646.035 602.721 711.811 626.126 752.261 C 639.09 774.667 664.588 786.026 673.652 811.086 C 678.542 824.606 676.629 838.497 677.255 852.539 C 677.627 860.886 678.654 869.251 679.531 877.559 C 681.215 893.503 687.557 910.316 687.056 926.118 C 686.725 936.542 682.938 947.795 679.216 957.443 C 675.361 967.437 670.831 978.468 663.459 986.448 C 652.036 998.814 624.914 1001.48 619.143 1015.14 C 613.342 1028.88 632.555 1036.6 636.716 1047.98 C 636.456 1050.54 636.228 1051.83 634.105 1053.5 C 632.094 1055.08 629.95 1055.29 627.499 1054.97 C 618.522 1047.32 616.543 1028.07 615.385 1016.91 C 613.972 996.075 616.908 975.738 619.804 955.184 L 629.231 890.038 C 631.244 876.266 633.754 862.337 634.663 848.444 C 636.454 821.095 624.175 798.972 606.33 778.949 C 588.786 759.264 561.018 739.207 533.816 737.681 C 533.294 716.902 534.143 686.747 517.574 671.27 C 505.349 659.85 487.642 663.182 472.436 663.891 C 464.802 653.331 456.24 648.288 444.83 642.428 C 464.802 641.343 480.33 634.511 498.713 627.121 C 498.841 632.369 498.59 638.466 502.115 642.751 C 504.494 645.644 508.238 647.49 511.954 647.775 C 516.516 648.125 520.847 646.357 524.278 643.422 C 527.335 640.806 529.558 637.056 529.811 632.984 C 530.115 628.084 527.366 624.869 524.291 621.403 L 523.396 620.411 L 524.571 618.4 z"/>
<path transform="translate(0,0)" fill="rgb(253,252,253)" d="M 133.955 428.751 C 141.664 432.027 148.457 436.214 156.557 438.844 C 186.161 448.456 222.969 446.28 253.313 440.513 C 269.634 437.412 285.135 433.775 301.894 434.406 C 331.044 451.997 349.361 471.68 386.482 469.149 C 371.447 489.577 353.648 507.819 333.595 523.352 C 310.109 540.122 290.999 543.526 262.643 543.33 C 253.588 543.268 244.257 543.524 235.252 542.707 C 200.776 539.582 159.133 506.047 137.994 480.599 C 143.154 480.99 148.312 481.828 153.442 482.511 C 146.439 470.688 137.635 458.923 131.73 446.568 C 130.525 444.045 129.671 442.523 130.521 439.852 C 136.947 440.122 143.954 448.329 148.407 452.393 C 143.668 444.459 138.606 436.75 133.955 428.751 z"/>
<path transform="translate(0,0)" fill="rgb(253,252,253)" d="M 358.87 760.021 C 359.465 760.061 360.062 760.086 360.656 760.14 C 376.195 761.537 403.984 779.095 413.615 791.441 C 421.355 801.362 423.72 812.418 422.189 824.738 C 420.041 842.027 410.642 863.289 396.412 873.949 C 389.762 878.93 380.844 882.318 372.448 880.869 C 367.085 879.943 362.793 876.958 359.814 872.434 C 356.933 868.06 355.721 862.82 357.13 857.707 C 358.882 851.347 363.887 846.313 369.678 843.413 C 380.71 837.891 388.673 840.613 399.316 844.451 L 399.999 843.477 C 398.683 841.638 397.534 840.182 395.641 838.9 C 389.995 835.073 382.634 835.222 376.221 836.696 C 367.664 838.663 360.021 843.556 355.537 851.228 C 352.487 856.448 351.008 862.971 352.785 868.874 C 354.78 875.499 360.398 880.12 366.486 882.943 C 373.691 886.284 381.746 886.441 389.132 883.565 C 403.775 877.863 413.313 862.845 419.345 849.063 C 426.856 831.9 429.788 815.582 422.924 797.693 C 421.844 795.748 421.064 794.059 420.461 791.915 C 422.312 791.448 441.129 798.987 445.592 799.897 C 456.422 802.094 467.545 802.455 478.494 800.964 C 484.468 800.117 500.107 795.536 504.86 797.827 C 506.131 799.415 506.923 800.81 507.471 802.759 C 512.261 819.783 496.561 855.585 488.154 870.563 C 482.726 880.231 456.352 917.339 446.13 920.182 C 435.939 911.862 417.799 917.461 405.217 914.095 C 380.677 907.529 346.785 879.499 334.631 857.316 C 327.696 844.657 326.218 831.931 330.252 818.008 C 335.239 800.798 342.633 768.881 358.87 760.021 z"/>
<path transform="translate(0,0)" fill="rgb(253,252,253)" d="M 280.497 224.872 C 303.595 226.076 303.506 237.295 324.157 240.411 C 325.816 240.662 336.107 238.675 338.549 238.234 C 348.499 241.688 375.422 259.928 384.765 266.612 C 390.211 293.542 387.978 328.7 384.821 356.032 C 380.799 390.843 368.581 421.245 383.713 455.286 L 389.105 464.923 C 379.315 465.023 371.959 464.857 362.342 462.535 C 345.765 458.532 313.719 440.628 305.615 426.065 C 296.665 409.983 297.763 385.186 297.82 367.161 C 297.951 326.491 301.722 259.953 280.497 224.872 z"/>
<path transform="translate(0,0)" fill="rgb(253,252,253)" d="M 441.919 667.293 C 450.553 667.139 459.291 667.874 467.958 667.856 C 477.326 667.836 487.173 666.758 496.451 667.811 C 501.232 668.353 506.21 669.484 510.483 671.762 C 517.789 675.657 522.025 683.357 524.42 691.01 C 533.134 718.863 530.047 775.7 522.635 803.299 C 518.535 818.564 511.948 832.705 504.741 846.699 C 507.406 834.22 512.72 821.476 512.753 808.614 C 512.769 802.172 511.033 797.544 506.522 792.947 C 488.839 792.243 472.631 799.291 453.949 797.205 C 422.463 793.69 423.303 782.72 402.748 765.174 C 390.559 754.768 376.834 748.4 361.649 743.675 C 374.998 731.166 383.965 714.793 394.751 700.2 C 406.745 683.974 421.362 670.329 441.919 667.293 z"/>
<path transform="translate(0,0)" fill="rgb(253,252,253)" d="M 116.54 301.343 C 147.392 307.579 178.814 311.071 209.865 316.312 C 218.047 327.437 225.08 339.513 232.96 350.871 C 252.79 379.452 273.166 404.882 297.562 429.686 L 287.345 429.54 C 265.242 432.293 243.847 438.132 221.533 439.712 C 195.494 441.556 155.407 441.356 134.891 422.516 C 118.387 407.36 120.697 361.598 119.482 339.763 C 118.769 326.939 117.192 314.171 116.54 301.343 z"/>
<path transform="translate(0,0)" fill="rgb(253,252,253)" d="M 390.535 270.404 C 398.359 274.871 409.306 281.63 417.803 283.516 C 429.981 286.219 449.414 284.289 459.916 292.291 C 481.044 308.388 505.236 378.873 508.533 404 C 501.405 409.809 474.484 423.759 464.966 428.906 C 444.069 440.05 416.335 456.517 394.724 463.732 C 373.709 432.052 382.991 403.125 387.981 368.209 C 392.111 339.319 396.52 299.052 390.535 270.404 z"/>
<path transform="translate(0,0)" fill="rgb(253,252,253)" d="M 183.383 210.332 C 203.626 214.611 229.24 224.291 248.043 232.755 C 244.999 227.777 241.558 223.142 238.152 218.405 C 251.596 224.34 261.241 225.873 275.85 225.343 C 304.099 280.375 286.455 351.502 294.311 406.94 C 295.502 414.022 296.182 416.065 298.657 422.803 C 271.836 400.523 213.989 322.337 203.599 288.765 C 196.298 265.175 196.322 238.068 183.383 210.332 z"/>
<path transform="translate(0,0)" fill="rgb(253,252,253)" d="M 324.724 745.34 C 333.763 744.29 342.619 745.247 351.602 746.346 C 343.049 752.74 333.625 757.745 326.644 766.031 C 314.94 779.923 311.461 797.17 304.541 813.361 C 302.065 819.155 297.836 823.973 296.226 830.136 C 293.899 839.04 293.492 848.871 294.399 858 C 297.378 887.966 317.038 924.947 340.339 943.995 C 360.756 960.685 379.759 957.96 404.34 955.35 C 397.78 960.855 391.067 964.917 383.23 968.358 C 379.032 967.256 374.854 966.065 370.67 964.912 C 350.829 959.152 284.94 940.052 271.562 929.588 C 254.183 915.995 231.369 876.838 228.755 855.202 C 225.572 828.852 241.811 802.612 257.433 782.765 C 274.808 760.689 296.865 748.54 324.724 745.34 z"/>
<path transform="translate(0,0)" fill="rgb(253,252,253)" d="M 170.027 1130.31 C 210.179 1127.84 242.802 1157.39 276.088 1175.72 C 305.113 1191.7 330.75 1186.43 362.018 1182.94 C 379.886 1180.94 398.775 1180.31 416.566 1183.08 C 449.833 1188.26 467.113 1210.94 505.773 1208.87 C 545.058 1206.77 583.865 1188.36 621.39 1177.33 C 612.566 1184 604.37 1191.43 595.48 1198.06 C 590.669 1201 585.802 1203.63 580.62 1205.86 C 543.153 1222.01 498.627 1218.08 460.376 1206.51 C 439.334 1200.15 418.433 1192.2 396.142 1192.29 C 333.789 1192.54 293.767 1237.26 223.938 1209.09 C 199.186 1199.11 167.286 1177.1 157.128 1151.26 C 155.513 1147.15 154.409 1142.59 156.458 1138.45 C 158.826 1133.68 165.341 1131.65 170.027 1130.31 z"/>
<path transform="translate(0,0)" fill="rgb(253,252,253)" d="M 757.756 858.862 L 758.813 860.955 C 757.958 887.801 758.208 915.347 749.328 941.044 C 734.104 985.099 683.401 1029.9 642.127 1050.11 L 641.842 1049.31 C 641.681 1048.87 641.508 1048.43 641.351 1047.99 C 638.402 1039.63 632.35 1034.7 626.16 1028.61 C 624.746 1026.63 623.608 1024.88 623.107 1022.46 C 620.055 1007.73 652.762 1000.46 662.156 993.447 C 666.726 990.035 669.38 986.417 672.278 981.585 C 693.456 946.279 694.203 925.436 684.502 886.878 C 687.166 890.132 689.855 893.142 693.11 895.83 C 699.225 900.88 706.943 904.354 715.018 903.44 C 734.436 901.24 747.108 872.985 757.756 858.862 z"/>
<path transform="translate(0,0)" fill="rgb(253,252,253)" d="M 530.58 786.5 C 531.166 786.872 531.761 787.23 532.341 787.611 C 545.683 796.37 563.434 788.845 578.594 790.935 C 584.991 791.818 593.053 794.162 596.96 799.77 C 598.991 802.686 599.333 806.212 598.663 809.631 C 597.743 814.33 595.154 818.015 592.211 821.677 C 579.43 837.577 562.805 851.805 548.2 866.107 C 528.387 885.508 508.967 907.41 486.476 923.62 C 471.415 934.053 452.356 938.673 434.826 943.249 C 445.406 929.061 457.861 917.653 469.484 904.473 C 500.327 869.497 520.887 832.165 530.58 786.5 z"/>
<path transform="translate(0,0)" fill="rgb(253,252,253)" d="M 531.532 606.138 C 538.535 605.555 545.708 605.621 552.637 606.841 C 589.823 613.387 615.324 647.787 638.204 674.915 C 648.767 687.439 660.036 699.761 669.309 713.292 C 691.288 745.366 686.157 778.62 679.561 814.765 C 677.383 808.616 674.981 803.195 671.776 797.503 C 659.543 779.593 639.911 768.099 629.189 749.073 C 606.842 709.418 613.831 654.547 573.007 625.491 C 545.762 606.101 528.093 615.418 498.969 620.242 C 508.547 612.859 519.797 608.645 531.532 606.138 z"/>
<path transform="translate(0,0)" fill="rgb(253,252,253)" d="M 85.0767 197.808 C 95.3085 203.384 107.182 209.609 116.869 215.894 C 152.842 239.23 182.155 274.902 205.731 310.502 C 176.317 307.834 147.383 299.255 115.539 298.915 C 112.056 275.348 104.751 253.372 96.8947 230.994 C 93.4859 221.284 87.5332 207.295 85.0767 197.808 z"/>
<path transform="translate(0,0)" fill="rgb(253,252,253)" d="M 304.467 819.673 C 306.713 828.108 306.782 836.727 310.097 845.04 C 321.474 873.574 345.772 892.301 365.141 914.991 C 374.88 926.4 383.019 938.954 391.529 951.275 L 390.698 952.644 L 385.927 953.398 C 376.771 953.893 368.838 953.857 360.141 950.545 C 335.64 941.217 318.589 914.446 308.311 891.672 C 297.33 867.338 294.92 844.767 304.467 819.673 z"/>
<path transform="translate(0,0)" fill="rgb(253,252,253)" d="M 353.985 755.31 C 355.3 755.281 354.587 755.166 356.073 755.886 C 350.958 759.515 346.834 763.268 343.592 768.713 C 339.745 775.176 337.806 782.521 335.248 789.54 C 328.754 807.358 319.945 826.923 325.268 846.193 C 333.024 874.273 376.302 911.448 403.709 918.108 C 414.237 920.667 433.927 917.579 442.206 922.311 L 442.309 924.127 C 437.966 930.776 429.742 934.852 423.104 938.89 C 414.789 943.586 406.721 948.118 397.522 950.855 C 387.436 939.817 380.437 926.315 370.934 914.769 C 348.859 887.946 313.719 864.371 309.984 826.994 C 308.041 807.552 318.694 781.502 331.169 766.985 C 337.601 759.501 344.329 756.226 353.985 755.31 z"/>
<path transform="translate(0,0)" fill="rgb(253,252,253)" d="M 103.81 198.467 C 126.681 200.253 156.803 202.83 179.036 208.95 C 182.766 220.916 186.106 231.8 188.825 244.023 C 192.239 259.369 194.707 275.944 198.679 291.058 C 170.846 254.324 144.73 223.28 102.425 202.002 L 103.81 198.467 z"/>
<path transform="translate(0,0)" fill="rgb(253,252,253)" d="M 414.376 460.933 L 415.122 461.195 C 414.409 464.264 397.934 474.733 394.711 477.462 C 387.41 483.662 380.486 490.293 373.977 497.32 C 356.063 516.452 341.753 538.662 331.735 562.881 C 319.889 560.933 307.688 560.876 295.733 559.727 C 282.345 558.441 269.193 555.935 256.026 553.253 C 250.692 551.211 244.922 549.785 239.45 548.104 C 255.394 547.204 271.526 549.139 287.393 547.717 C 333.29 543.603 366.51 501.286 393.747 468.415 C 400.927 466.433 407.551 463.909 414.376 460.933 z"/>
<path transform="translate(0,0)" fill="rgb(253,252,253)" d="M 370.562 976.446 C 371.191 976.303 372.352 976.531 373.009 976.589 C 372.918 976.858 372.854 977.138 372.735 977.396 C 369.781 983.813 346.49 1005.98 339.876 1008.54 C 326.611 1013.67 311.632 1007.28 299.429 1002.03 C 294.974 999.69 290.549 997.727 285.865 995.898 C 302.405 993.259 316.194 986.657 332.106 982.275 C 344.544 978.849 357.763 977.79 370.562 976.446 z"/>
<path transform="translate(0,0)" fill="rgb(253,252,253)" d="M 515.446 620.809 C 515.981 620.902 516.535 620.923 517.052 621.09 C 519.592 621.907 523.713 626.117 524.593 628.628 C 525.468 631.126 525.04 634.108 524.037 636.504 C 522.255 640.758 518.86 641.925 514.792 643.446 C 512.821 643.256 510.745 643.09 508.927 642.249 C 506.29 641.03 503.831 638.771 503.015 635.907 C 502.294 633.379 503.008 630.614 504.122 628.317 C 506.539 623.333 510.624 622.478 515.446 620.809 z"/>
<path transform="translate(0,0)" fill="rgb(253,252,253)" d="M 355.896 746.883 C 363.338 748.466 370.579 750.882 377.48 754.087 C 386.124 758.065 408.054 771.052 411.431 780.083 L 410.456 780.339 C 397.579 772.666 385.811 761.95 371.993 756.124 C 367.986 754.435 363.846 753.904 359.729 752.682 C 357.252 751.947 355.002 751.647 353.699 749.371 L 355.896 746.883 z"/>
<path transform="translate(0,0)" fill="rgb(253,252,253)" d="M 801.381 805.105 C 802.709 805.87 802.775 805.666 803.62 806.776 C 799.043 818.454 790.24 842.845 776.563 846.594 C 776.799 845.017 776.564 845.129 777.457 843.999 C 787.602 831.156 794.224 819.678 801.381 805.105 z"/>
<path transform="translate(0,0)" fill="rgb(213,214,216)" d="M 493.739 621.095 L 496.61 620.916 L 497.111 622.166 C 488.985 629.319 471.711 633.407 461.231 635.719 L 459.003 636.472 C 467.246 629.583 483.335 624.097 493.739 621.095 z"/>
<path transform="translate(0,0)" fill="rgb(163,163,163)" d="M 801.381 805.105 C 803.921 797.364 806.739 789.494 810.395 782.196 C 809.237 787 805.57 803.167 803.62 806.776 C 802.775 805.666 802.709 805.87 801.381 805.105 z"/>
<path transform="translate(0,0)" fill="rgb(213,214,216)" d="M 422.96 944.156 L 423.486 944.933 C 419.848 949.449 414.77 951.645 409.416 953.513 L 408.668 951.809 C 412.616 948.376 418.245 946.388 422.96 944.156 z"/>
<path transform="translate(0,0)" fill="rgb(213,214,216)" d="M 295.273 1004.56 C 301.571 1007.42 308.125 1009.74 314.616 1012.14 L 312.997 1015.05 C 307.994 1012.66 300.246 1007.61 295.273 1004.56 z"/>
<path transform="translate(0,0)" fill="rgb(213,214,216)" d="M 102.425 202.002 C 99.6447 200.897 98.4405 200.62 96.1538 198.614 C 98.6088 197.345 100.479 198.15 103.81 198.467 L 102.425 202.002 z"/>
<path transform="translate(0,0)" fill="rgb(5,4,5)" d="M 1077.78 234.943 C 1097.42 195.341 1143.97 161.343 1180.35 137.728 C 1198.56 125.952 1215.65 130.39 1235.1 135.265 C 1284.82 147.725 1342.28 165.826 1371.62 210.925 C 1378.21 221.056 1372.36 235.083 1369.16 245.636 C 1394.26 250.942 1424.54 250.916 1450.22 255.215 C 1464.09 257.538 1479.19 255.768 1484.31 272.365 C 1492.78 299.798 1498.35 327.659 1506.25 355.26 C 1512.3 376.651 1505.41 380.299 1488.68 391.066 C 1466.96 405.306 1487.14 412.849 1498.12 422.421 C 1513.79 434.696 1541.95 475.146 1528.49 495.542 C 1514.9 516.129 1512.56 513.067 1515.89 540.991 C 1518.12 559.636 1512.54 583.978 1502.91 600.968 C 1488.53 626.339 1440.13 642.416 1414.15 630.239 C 1408.12 627.362 1405.84 617.282 1404.51 610.705 C 1392.27 627.615 1386.59 649.236 1372.81 665.382 C 1352.2 688.891 1320.57 692.31 1291.04 695.036 C 1276.96 696.335 1240.03 694.686 1258.8 670.534 C 1262.86 665.316 1272.76 662.522 1273.08 654.066 L 1272.11 653.44 C 1265.85 656.936 1260.47 661.794 1256.34 667.655 C 1237.53 694.246 1268.97 705.552 1249.82 730.354 C 1240.05 743.017 1221.53 749.483 1206.15 751.515 C 1186.05 754.171 1167.84 747.193 1152.68 734.151 C 1145.05 726.877 1126.23 714.293 1124.57 703.768 C 1125.36 692.751 1137.21 687.057 1144.1 680.712 C 1157.21 668.634 1161.97 669.203 1178.24 674.944 C 1197.47 681.73 1217.72 677.422 1231.52 661.954 C 1237.47 655.277 1240.56 645.709 1232.5 639.135 C 1219.62 630.409 1199.09 632.762 1184.18 633.142 C 1166.24 634.658 1148.41 642.956 1138.45 658.308 C 1126.57 676.624 1118.95 693.263 1094.4 695.083 C 1067.38 696.905 1040.74 687.95 1020.31 670.178 C 1015.58 666.015 999.932 651.222 995.126 649.833 C 960.521 639.829 951.256 638.825 934.231 605.342 C 916.255 569.989 933.882 548.439 932.227 512.876 C 929.544 455.248 903.205 387.544 955.413 342.678 C 969.498 330.493 959.357 311.372 958.265 295.626 C 956.37 268.288 990.29 250.864 1009.79 238.384 C 1027.27 227.623 1044.88 215.81 1063.76 207.986 C 1071.05 204.964 1077.67 204.745 1085.34 204.501 C 1082.4 214.632 1080.02 222.206 1076.32 232.138 L 1077.78 234.943 z"/>
<path transform="translate(0,0)" fill="rgb(253,252,253)" d="M 1066.28 262.958 L 1067.31 269.762 C 1064.02 279.578 1064.3 312.06 1056.32 317.993 C 1044.91 315.417 1063.3 271.517 1066.28 262.958 z"/>
<path transform="translate(0,0)" fill="rgb(129,129,132)" d="M 1066.28 262.958 C 1067.37 256.888 1073.81 238.169 1076.32 232.138 L 1077.78 234.943 C 1072.99 249.269 1070.17 254.559 1067.31 269.762 L 1066.28 262.958 z"/>
<path transform="translate(0,0)" fill="rgb(253,252,253)" d="M 1447.65 552.883 C 1443.21 593.461 1423.27 583.981 1401.49 608.513 C 1388.01 623.691 1383.29 649.415 1367.83 664.882 C 1351.05 681.672 1328.33 686.318 1305.54 689.335 C 1292.88 690.835 1276.02 693.153 1263.81 688.035 C 1260.41 686.612 1259.6 685.056 1258.34 681.866 C 1259.51 667.966 1278.95 668.034 1277.29 651.801 C 1275.55 648.918 1276.75 649.913 1273.54 648.755 C 1265.86 650.025 1258.09 658.43 1253.49 664.157 C 1239.56 680.192 1249.26 694.06 1251.41 710.455 C 1252.77 736.326 1221.31 745.907 1201.45 747.544 C 1175.73 749.664 1162.52 736.693 1144.05 721.359 C 1138.14 716.457 1129.57 708.699 1129.06 700.598 C 1130.91 694.837 1135.63 692.268 1140.65 689.466 C 1146.73 686.074 1153.48 677.034 1157.03 675.638 C 1165.05 672.495 1179.37 680.736 1188.07 682.169 C 1192.85 682.955 1198.2 682.411 1202.97 681.63 C 1215.64 679.556 1229.84 672.609 1237.27 661.846 C 1240.61 657.005 1242.33 650.907 1241.11 645.066 C 1240.14 640.363 1237.17 636.968 1233.1 634.536 C 1222.75 628.339 1208.06 627.716 1196.3 628.057 C 1122.23 630.206 1139.82 679.568 1101.79 689.043 C 1074.49 695.842 1044.48 684.758 1023.38 667.44 C 1015.25 660.764 1007.69 651.802 998.463 646.778 C 986.99 640.533 973.428 641.158 962.146 634.136 C 945.623 623.851 936.001 602.974 931.778 584.688 C 926.572 562.147 936.863 538.751 936.479 515.723 C 935.948 483.802 927.265 452.67 927.405 420.765 C 927.459 408.455 928.823 395.736 932.634 383.98 C 935.216 375.951 939.1 368.4 944.131 361.63 C 950.787 352.786 964.627 341.767 966.964 331.119 C 970.403 312.686 954.843 293.784 967.704 276.389 C 978.799 261.383 994.635 252.412 1010.55 242.951 C 1033.25 229.458 1053.36 213.342 1079.79 208.228 C 1070.31 239.206 1057.92 270.939 1049.18 302.236 C 1046.04 313.482 1047.66 320.538 1059.07 324.717 C 1055.59 328.551 1051.34 333.208 1048.16 337.16 C 1024.62 366.408 1027.38 424.023 1032.31 459.449 C 1007.22 465.966 1012.7 501.61 1015.72 521.198 C 1022.08 562.336 1058.46 620.255 1104.01 623.922 C 1122.47 625.408 1144.9 612.609 1163.68 611.537 C 1194.97 611.139 1217.84 618.871 1249.73 612.929 C 1249.88 621.243 1248.13 624.55 1254.95 632.503 C 1262.31 641.077 1278.83 641.236 1289.04 641.661 C 1333.99 643.527 1358.09 638.071 1384.57 599.542 C 1391.77 589.073 1403.06 575.568 1412.63 566.705 C 1408.09 559.274 1405.64 557.003 1399.49 551.16 C 1412.06 537.06 1435.96 518.653 1442.4 502.227 C 1458.57 460.302 1418.67 430.131 1397.93 399.208 C 1391.3 389.315 1387.12 361.159 1376.57 353.597 C 1376.03 353.212 1379.63 332.274 1374.88 324.532 C 1357.4 296.072 1321.61 269.671 1290.14 258.822 C 1269.84 253.522 1258.42 257.235 1236.58 248.136 C 1238.16 246.657 1239.77 245.213 1241.4 243.805 C 1261.3 226.699 1293.39 214.744 1316.87 231.7 C 1326.42 239.056 1332.79 247.771 1344.25 252.619 C 1368.26 262.777 1402.62 251.267 1421.29 273.729 C 1433.59 288.536 1417.41 309.324 1415.06 324.382 C 1414.97 324.958 1414.94 328.496 1415.08 329.403 C 1429.52 338.837 1441.28 340.184 1452.55 354.861 C 1458.05 361.939 1461.02 370.65 1460.99 379.61 C 1461.12 397.787 1449.05 409.597 1445.53 424.853 C 1441.4 442.696 1449.32 466.488 1449.95 487.26 C 1450.75 513.238 1450.61 527.061 1447.65 552.883 z"/>
<path transform="translate(0,0)" fill="rgb(253,252,253)" d="M 1059.07 324.717 C 1064.86 314.166 1068.72 296.837 1069.32 284.926 C 1072.55 220.257 1124.17 181.097 1173.08 147.458 C 1182.62 140.891 1196.66 131.852 1208.84 134.313 C 1262.6 145.166 1324.19 160.605 1361.4 203.876 C 1376.74 221.686 1367.34 230.073 1365 250.072 C 1364.63 250.615 1363.68 252.13 1363.27 252.529 C 1336.69 248.921 1336.76 240.096 1316.3 226.586 C 1286.9 207.17 1252.5 227.603 1230.62 247.853 C 1254.1 264.177 1269.45 256.026 1291.24 263.727 C 1314.43 271.928 1369.56 307.753 1373.21 334.891 C 1373.88 339.916 1373.78 347.503 1370.8 351.762 C 1366.03 354.422 1362.95 355.68 1359.37 359.827 C 1358.46 345.288 1358.07 331.973 1345.89 321.755 C 1330.75 309.054 1288.36 289.916 1269.95 286.66 C 1281.44 293.898 1302.18 303.202 1314.04 308.14 C 1359.65 327.122 1350.46 336.823 1356.2 376.22 C 1361.17 410.348 1378.54 434.455 1351.83 469.267 C 1340.97 484.995 1327.23 498.637 1310.85 509.637 C 1316.27 512.829 1322.61 516.303 1327.47 520.142 C 1316.03 532.812 1299.81 537.423 1293.73 545.466 C 1272.05 574.113 1279.84 608.198 1230.74 611.324 C 1210.67 612.601 1187.25 606.325 1166.87 606.772 C 1157.73 606.972 1146.5 609.89 1137.72 612.982 C 1107.87 624.02 1086.93 621.653 1063.25 599.581 C 1034.62 572.901 1018.99 537.179 1018.01 497.996 C 1017.77 488.218 1018.12 465.618 1030.6 463.803 L 1032.65 464.458 C 1042.24 498.798 1049.28 514.978 1082.72 533.77 C 1091.62 538.741 1101.06 542.671 1110.86 545.484 C 1127.07 550.271 1143.29 552.876 1160.03 554.543 C 1185.14 557.045 1201.9 564.56 1202.23 532.026 C 1214.43 514.488 1246.36 491.32 1267.77 486.514 C 1248.13 502.05 1226.62 517.833 1208.66 535.357 C 1203.33 540.56 1202.92 555.886 1214.02 554.022 C 1255.9 534.02 1303.29 525.276 1324.78 479.515 C 1336 455.614 1337.13 428.199 1327.9 403.457 C 1304.79 341.907 1229.64 316.066 1171.31 340.148 C 1158.89 345.274 1149.63 350.486 1138.68 358.179 C 1149.8 340.919 1166.44 323.281 1186.43 317.495 C 1209.37 310.855 1228.04 293.384 1249.49 287.444 C 1263.86 283.464 1290.43 287.398 1305.09 289.456 C 1299.57 278.794 1293.28 271.09 1280.35 267.727 C 1246.06 258.808 1197.89 256.872 1165.58 272.165 C 1159.65 274.971 1148.06 283.059 1142.62 286.769 C 1111.62 283.348 1082.65 306.886 1059.07 324.717 z"/>
<path transform="translate(0,0)" fill="rgb(253,252,253)" d="M 1213.6 265.502 C 1231.87 264.281 1270.16 266.191 1286.15 274.644 C 1290.86 277.132 1295.21 280.805 1299.31 284.287 C 1281.57 281.77 1247.73 278.413 1232.17 289.427 C 1191.22 318.402 1150.27 314.315 1130.44 367.786 C 1136.63 364.854 1145.56 358.55 1151.88 354.698 C 1170.64 343.264 1191.02 336.533 1212.98 335.642 C 1246.3 334.353 1274.45 344.822 1298.7 367.368 C 1336.45 401.448 1340.65 463.369 1305.37 500.703 C 1288.16 518.915 1261.11 529.72 1238.22 539.129 C 1233.8 540.944 1213.71 549.844 1210.66 549.865 C 1202.6 540.229 1233.21 519.525 1240.18 513.974 C 1254.13 502.889 1268.03 491.732 1281.87 480.504 C 1276.25 481.264 1269.89 482.362 1264.43 483.363 C 1243.71 487.159 1208.59 513.465 1198.09 530.702 C 1197.4 560.389 1182.01 552.955 1158.61 550.339 C 1090.9 542.765 1038.27 519.264 1034.54 443.646 C 1031.95 391.175 1030.02 343.588 1081.32 313.433 C 1103.78 299.664 1112.71 292.017 1140.32 289.624 C 1120.27 307.735 1107.9 331.063 1106.08 358.137 C 1105.51 366.525 1106 375.672 1101.95 382.852 C 1098.75 385.795 1095.45 386.047 1091.12 387.073 C 1071.08 395.511 1088.48 426.167 1090.8 440.925 C 1095.88 473.151 1122.96 483.108 1152.19 488.74 C 1191.49 495.974 1232.05 487.406 1265.06 464.898 C 1272.42 459.878 1305.39 435.659 1295.17 424.634 C 1284.03 412.612 1263 446.189 1256.37 454.557 C 1256.78 453.185 1257.17 451.806 1257.53 450.421 C 1263.51 427.841 1261.17 406.434 1238.96 393.816 C 1230.37 388.939 1223.83 385.175 1214.09 383.007 C 1257.84 371.474 1269.08 388.268 1269.88 429.141 C 1278.43 421.465 1282.8 417.621 1280.89 405.148 C 1278.15 389.02 1265.6 370.66 1252.3 361.183 C 1225.23 341.886 1202.32 353.243 1186.06 377.45 C 1189.57 369.37 1201.04 343.277 1180.47 345.279 C 1165.87 346.699 1149.14 364.198 1139.73 374.778 C 1116.78 400.587 1106.14 436.752 1138.07 460.967 C 1146.29 467.26 1180.95 490.853 1189.11 478.786 C 1189.7 469.134 1168.73 445.965 1161.62 437.008 C 1190.76 454.498 1191.43 474.049 1229.28 477.841 C 1195.54 492.889 1139.32 489.127 1108.77 467.38 C 1106.3 465.62 1101.81 460.69 1100.82 457.708 C 1094.95 440.143 1089.23 421.326 1085.5 403.193 C 1082.8 388.41 1103.16 391.659 1107.2 383.118 C 1110.73 375.659 1109.61 362.099 1110.53 354.03 C 1112.64 335.436 1121.52 316.158 1133.57 302.153 C 1155.91 276.203 1180.77 268.177 1213.6 265.502 z"/>
<path transform="translate(0,0)" fill="rgb(253,252,253)" d="M 1398.08 253.475 C 1408.35 254.753 1472.91 259.67 1476.3 266.548 C 1485.91 286.064 1499.94 345.774 1503.92 369.889 C 1505.87 381.748 1464.89 391.074 1476.83 409.819 C 1481.36 416.289 1493.53 424.553 1499.15 429.133 C 1508.84 437.028 1532.39 472.146 1527.15 484.783 C 1516.08 511.481 1505.86 513.491 1511.75 547.503 C 1512.74 571.388 1504.67 601.245 1483.84 615.166 C 1468.32 625.536 1443.87 631.85 1425.75 630.388 C 1416.77 629.663 1405.73 617.666 1410.08 609.121 C 1418.23 593.115 1442.61 593.125 1447.88 571.503 C 1456.65 540.007 1456.02 501.755 1452.62 469.417 C 1451.53 458.994 1447.37 441.095 1448.63 432.453 C 1453 404.877 1475.28 390.159 1460.84 360.308 C 1450.47 338.868 1435.32 337.007 1420.08 327.618 C 1414.88 324.413 1437.4 289.793 1428.32 276.513 C 1418.21 261.735 1410.64 259.261 1394.64 255.72 L 1398.08 253.475 z"/>
<path transform="translate(0,0)" fill="rgb(253,252,253)" d="M 1373.38 358.357 C 1374.7 359.107 1374.69 359.01 1375.69 359.831 C 1385.46 367.891 1386.67 388.226 1393.01 399.612 C 1407.91 426.399 1440.47 447.436 1441.98 480.525 C 1443.35 510.301 1410.59 533.326 1392.08 552.923 C 1398.54 556.217 1403.05 560.094 1407.69 565.545 C 1385.95 585.993 1371.28 622.093 1341.89 632.101 C 1324.4 638.061 1278.79 641.493 1262.15 632.652 C 1258.18 630.542 1254.95 627.343 1253.8 622.898 C 1250.81 611.377 1264.75 604.47 1271.38 597.118 C 1274.36 593.811 1276.46 589.959 1278.58 586.076 C 1283.95 573.243 1289.16 554.308 1300.03 545.036 C 1304.5 541.216 1310.35 538.329 1315.42 535.351 C 1320.04 532.634 1325.42 529.815 1328.58 525.339 C 1330.04 523.284 1330.69 520.828 1329.95 518.354 C 1328.55 513.669 1322.53 511.482 1318.57 509.378 C 1343.05 492.579 1361.78 466.578 1370.79 438.455 C 1372.49 472.34 1365.48 490.652 1347.93 519.474 C 1344.72 524.746 1338.98 531.829 1338.59 538.143 C 1338.42 540.866 1339.07 542.04 1340.71 544.099 C 1342.36 544.449 1343.31 544.561 1344.97 544.028 C 1352.06 541.749 1357.98 533.337 1361.18 526.969 C 1373.64 502.174 1381.86 446.695 1376.89 419.124 C 1375.19 409.732 1370.45 400.64 1367.42 391.589 C 1362.79 377.722 1367.25 370.502 1373.38 358.357 z"/>
<path transform="translate(0,0)" fill="rgb(253,252,253)" d="M 1180.1 348.919 C 1183.15 348.856 1184.25 348.866 1186.87 350.694 C 1191.2 357.937 1183.19 370.483 1182.13 378.571 C 1181.44 383.828 1183.67 386.914 1186.73 390.943 C 1182.51 393.348 1176.65 395.861 1174.73 400.558 L 1176 401.906 C 1180.99 402.446 1185.8 400.339 1190.51 398.829 C 1189.96 402.417 1189.26 406.163 1189.23 409.796 C 1189.17 419.122 1194.5 429.173 1201 435.605 C 1206.16 440.711 1213.76 445.063 1221.25 444.626 C 1224.59 444.431 1227.64 443.039 1229.7 440.35 C 1232.91 436.152 1233.42 429.95 1232.61 424.901 C 1231.44 417.646 1227.42 410.211 1221.3 405.98 C 1217.95 403.667 1214.05 402.305 1209.98 403.264 C 1206 404.202 1202.58 407.616 1200.61 411.088 C 1198.93 414.031 1199.05 417.209 1200.05 420.371 C 1201.04 423.483 1202.51 425.098 1205.42 426.595 C 1211.91 427.4 1219.31 419.365 1224.83 416.262 C 1227.44 419.431 1228.89 423.393 1228.95 427.496 C 1229.02 431.23 1227.88 435.103 1224.99 437.625 C 1222.83 439.51 1219.98 440.269 1217.15 440.022 C 1211.81 439.554 1207.06 436.265 1203.64 432.313 C 1197.85 425.633 1192.36 415.179 1193.44 406.046 C 1193.8 402.984 1195.09 400.161 1197.75 398.398 C 1206.17 392.803 1225.72 396.109 1235.1 397.533 C 1240.81 406.316 1243.77 414.142 1244.31 424.643 C 1242.92 442.342 1235.83 457.35 1228.98 473.486 C 1203.17 471.678 1192.16 454.775 1173.07 440.118 C 1165.64 434.411 1158.11 430.664 1149.54 426.907 C 1157.94 440.409 1179.35 462.587 1184.36 474.744 C 1185.22 476.832 1185 476.437 1184.31 478.27 C 1181.25 479.116 1178.41 477.604 1175.58 476.511 C 1156.8 469.254 1133.82 458.53 1125.48 438.735 C 1120.37 426.574 1122.24 413.614 1127.35 401.849 C 1136.79 380.107 1157.94 357.677 1180.1 348.919 z"/>
<path transform="translate(0,0)" fill="rgb(253,252,253)" d="M 1219.56 356.214 C 1231.81 355.183 1240.98 357.71 1250.81 365.371 C 1263.02 374.893 1274.8 391.413 1276.56 407.045 C 1276.92 410.198 1277.28 414.713 1275.28 417.293 C 1270.53 410.099 1272.65 398.418 1264.71 387.171 C 1261.78 383.91 1258.61 381.128 1254.64 379.175 C 1233.21 368.633 1209.98 381.782 1189.93 388.381 L 1188.78 387.26 C 1188.73 382.973 1191.18 378.153 1193.33 374.485 C 1199.44 364.03 1208.36 359.379 1219.56 356.214 z"/>
<path transform="translate(0,0)" fill="rgb(253,252,253)" d="M 1243.37 402.637 C 1245.03 403.423 1246.16 404.399 1247.42 405.714 C 1254.27 412.87 1256.47 421.893 1256.28 431.575 C 1255.98 446.722 1249.76 458.642 1238.91 468.942 L 1236.86 470.23 L 1235.84 469.824 C 1236.82 464.466 1239.43 459.544 1241.54 454.553 C 1249.35 436.127 1250.97 421.451 1243.37 402.637 z"/>
<path transform="translate(0,0)" fill="rgb(253,252,253)" d="M 1286.97 425.599 C 1287.46 425.672 1287.96 425.683 1288.43 425.818 C 1290.98 426.537 1291.64 427.106 1293 429.184 C 1292.98 430.56 1293.06 430.676 1292.61 432.194 C 1289.3 443.371 1263.38 460.901 1253.74 467.02 C 1251.57 467.975 1250.74 468.479 1248.32 468.523 C 1263.25 456.231 1271.54 437.229 1286.97 425.599 z"/>
<path transform="translate(0,0)" fill="rgb(253,252,253)" d="M 1361.55 502.08 C 1362.88 501.966 1364.04 501.773 1365.34 501.896 C 1362.87 510.99 1355.37 538.541 1344.21 538.588 C 1343.15 534.145 1358.18 509.415 1361.55 502.08 z"/>
<path transform="translate(0,0)" fill="rgb(253,252,253)" d="M 1210.79 407.075 C 1213.24 407.528 1216.32 407.908 1218.44 409.233 C 1220.44 410.48 1220.38 410.941 1220.75 413.095 C 1218.88 416.959 1215.08 418.786 1211.59 421.048 C 1211.06 421.378 1210.57 421.785 1210 422.038 C 1207.8 423.014 1207.1 422.525 1205.25 421.426 C 1204.37 419.514 1204.04 418.229 1204.3 416.15 C 1204.89 411.469 1207.27 409.771 1210.79 407.075 z"/>
<path transform="translate(0,0)" fill="rgb(213,214,216)" d="M 1365 250.072 C 1370.92 249.512 1391.54 252.337 1398.08 253.475 L 1394.64 255.72 C 1384.43 253.89 1373.76 253.964 1363.27 252.529 C 1363.68 252.13 1364.63 250.615 1365 250.072 z"/>
<path transform="translate(0,0)" fill="rgb(213,214,216)" d="M 1209.39 388.421 C 1213.93 388.152 1219.03 387.987 1223.15 390.165 C 1221.4 391.655 1219.27 391.284 1217.01 391.436 C 1212.67 391.936 1207.96 392.966 1203.66 391.928 C 1204.88 389.726 1207.13 389.389 1209.39 388.421 z"/>
<path transform="translate(0,0)" fill="rgb(83,81,86)" d="M 1370.02 410.74 C 1370.28 410.954 1370.56 411.132 1370.78 411.381 C 1374.5 415.655 1373.14 426.518 1372.55 431.85 C 1370.35 426.314 1369.19 416.689 1370.02 410.74 z"/>
<path transform="translate(0,0)" fill="rgb(213,214,216)" d="M 1361.55 502.08 C 1363.16 498.493 1364.99 493.276 1367.83 490.9 C 1368.15 494.297 1366.41 498.51 1365.34 501.896 C 1364.04 501.773 1362.88 501.966 1361.55 502.08 z"/>
<path transform="translate(0,0)" fill="rgb(163,163,163)" d="M 1366.36 357.668 L 1367.45 358.851 C 1367.35 362.192 1365.08 365.353 1363.47 368.228 L 1362.45 366.773 C 1362.52 363.107 1364.45 360.687 1366.36 357.668 z"/>
<path transform="translate(0,0)" fill="rgb(5,4,5)" d="M 625.61 77.5544 C 636.828 39.3032 690.47 19.3764 726.692 16.6566 C 763.956 13.8584 793.141 31.7789 819.322 56.5308 C 837.655 73.8635 856.525 92.5025 874.767 110.057 C 895.758 131.905 929.171 154.45 930.101 187.135 C 930.873 214.273 912.652 250.028 894.91 268.91 C 903.001 297.722 908.023 316.952 894.176 345.495 C 882.517 369.529 837.639 408.852 812.706 416.953 C 809.369 417.058 808.863 416.922 805.602 417.916 C 807.525 421.401 810.214 424.502 807.409 427.807 C 774.632 434.477 724.948 433.596 691.454 432.427 C 672.486 431.766 649.868 428.248 635.985 414.75 C 630.969 411.098 623.818 401.264 618.977 398.25 C 590.011 380.22 583.627 348.407 560.344 326.352 C 538.232 305.406 510.234 292.78 489.32 270.021 C 452.032 229.444 481.987 178.329 495.624 134.602 C 500.017 120.77 511.526 85.6539 522.696 78.0161 C 543.955 63.4797 601.121 75.4007 625.61 77.5544 z"/>
<path transform="translate(0,0)" fill="rgb(253,252,253)" d="M 793.867 411.788 C 749.647 402.432 690.97 421.294 645.323 404.812 C 624.061 397.134 620.328 396.401 611.644 373.586 C 595.621 331.488 591.153 296.397 548.397 273.405 L 548.72 272.271 C 552.395 271.035 555.627 270.807 559.371 270.79 C 599.306 270.603 613.363 312.854 636.52 337.102 C 643.331 344.234 650.747 345.887 660.284 345.427 L 661.63 345.352 C 684.767 391.069 737.761 380.271 777.636 396.143 C 787.057 399.893 792.594 404.758 800.121 411.436 L 793.867 411.788 z"/>
<path transform="translate(0,0)" fill="rgb(213,214,216)" d="M 800.121 411.436 C 805.598 414.946 806.496 415.384 812.706 416.953 C 809.369 417.058 808.863 416.922 805.602 417.916 C 804.923 417.668 798.222 413.479 793.867 411.788 L 800.121 411.436 z"/>
<path transform="translate(0,0)" fill="rgb(253,252,253)" d="M 775.372 86.7943 C 802.271 85.7289 844.308 126.159 857.29 148.79 C 855.905 186.871 859.368 224.627 870.897 261.057 C 881.894 295.81 882.58 321.606 860.639 352.287 C 845.625 373.281 827.346 389.638 810.537 409.014 C 810.511 409.546 810.484 410.078 810.458 410.61 L 811.642 410.683 C 816.488 407.627 821.09 402.639 824.995 398.511 C 854.253 367.579 889.772 332.594 880.947 285.821 C 878.141 270.955 872.45 256.777 869.061 242.174 C 862.306 213.065 860.916 186.674 860.12 157.014 L 884.559 245.032 C 889.296 262.048 898.333 290.732 898.976 307.574 C 899.58 320.304 896.831 332.969 891.004 344.302 C 878.294 369.357 857.209 383.539 836.062 400.219 C 808.156 422.23 810.815 411.278 785.418 396.002 C 744.548 376.907 684.165 388.927 664.2 341.814 C 658.832 342.082 653.851 341.949 648.498 341.839 C 645.78 340.194 642.907 338.643 640.69 336.443 C 577.809 274.602 662.918 240.889 702.925 205.324 C 720.964 189.289 741.367 148.065 767.102 147.772 C 774.567 151.044 783.966 188.81 786.289 198.197 C 793.706 228.161 814.211 277.858 808.678 307.699 C 806.418 320.591 802.04 333.019 795.722 344.481 C 792.723 350.017 783.236 364.405 785.583 369.635 C 810.685 378.022 828.911 283.939 829.914 269.367 C 832.446 232.579 829.514 171.582 804.318 142.733 C 796.06 133.277 736.027 113.172 775.372 86.7943 z"/>
<path transform="translate(0,0)" fill="rgb(253,252,253)" d="M 720.833 20.372 C 741.162 18.2194 765.602 22.212 783.159 33.2067 C 816.936 54.3586 845.357 87.1281 874.368 114.529 C 887.588 127.674 901.446 139.966 913.52 154.192 C 943.889 189.973 915.542 234.904 894.057 266.272 L 873.016 190.539 C 870.231 180.348 865.334 159.663 861.301 150.222 C 849.519 122.639 816.066 97.6447 789.269 85.6442 C 783.679 83.1407 777.069 82.7078 771.65 85.3299 C 766.918 87.504 761.924 93.0359 760.944 98.3049 C 754.176 134.72 797.152 129.061 809.285 155.327 C 830.694 201.677 832.191 262.153 818.668 310.755 C 815.141 322.915 803.007 363.649 789.609 366.512 L 788.879 365.264 C 795.185 351.483 803.179 339.541 808.139 324.633 C 822.161 282.492 799.575 238.231 789.693 197.401 C 786.143 182.732 780.935 166.727 775.734 152.622 C 774.894 150.345 771.784 145.674 769.278 145.309 C 747.222 139.714 734.157 167.616 724.592 173.297 C 714.264 169.837 723.685 161.473 702.761 168.125 C 699.609 166.063 698.387 158.828 696.231 156.73 C 677.954 138.577 656.887 173.075 638.219 168.222 C 617.343 162.794 638.336 142.26 648.478 137.145 C 666.966 127.821 687.266 126.644 706.451 134.566 C 715.664 138.371 725.977 150.208 736.349 143.944 C 743.427 134.291 728.755 109.336 720.93 103.086 C 716.659 99.6954 711.555 97.5139 706.153 96.7696 C 696.92 95.4104 658.481 101.154 645.616 102.349 C 649.352 86.1562 642.902 83.323 629.033 77.7667 C 639.505 42.718 688.053 25.0055 720.833 20.372 z"/>
<path transform="translate(0,0)" fill="rgb(253,252,253)" d="M 544.309 74.3392 C 557.864 73.3553 609.75 79.4385 625.555 81.3847 C 629.727 92.6571 631.346 96.1172 642.166 102.215 C 607.443 106.619 577.163 116.783 582.935 159.7 C 583.539 164.184 585.704 170.837 584.046 174.885 C 570.756 177.412 555.978 169.143 545.018 181.026 C 530.647 196.18 553.617 203.267 563.316 211.881 C 583.038 229.398 570.61 251.607 591.95 267.721 C 625.442 232.931 568.569 216.724 584.477 179.83 C 616.657 186.582 654.195 204.565 685.9 186.683 C 701.18 178.065 705.762 161.02 723.803 175.66 C 700.821 210.374 673.056 222.13 642.967 247.155 C 623.603 263.822 613.384 276.037 615.103 302.593 C 601.767 285.235 585.786 269.495 562.896 267.566 C 552.263 266.67 545.93 269.716 536.584 273.754 C 537.492 274.025 538.397 274.302 539.3 274.588 C 592.378 291.458 593.724 347.365 616.94 392.164 C 592.053 374.37 587.418 349.758 568.158 328.947 C 539.425 297.899 483.942 281.442 475.75 235.287 C 473.942 225.1 474.752 214.533 476.77 204.441 C 480.338 186.598 509.175 100.087 518.207 87.9199 C 524.932 78.8615 533.542 75.678 544.309 74.3392 z"/>
<path transform="translate(0,0)" fill="rgb(253,252,253)" d="M 691.051 100.338 C 711.156 97.3695 721.705 103.344 730.352 122.206 C 733.009 128.002 735.202 131.71 735.001 138.367 C 729.696 148.02 712.319 133.502 704.791 130.506 C 690.003 124.623 672.336 124.28 657.397 129.514 C 640.613 135.395 607.787 159.336 638.178 172.532 C 659.948 169.048 660.115 162.621 679.679 155.8 C 684.773 154.024 688.635 155.927 692.965 158.504 C 702.956 169.526 698.524 175.109 687.651 182.106 C 657.178 201.715 618.698 183.645 587.862 177.078 C 590.009 162.612 579.631 143.807 591.739 127.217 C 609.848 102.404 660.375 105.602 691.051 100.338 z"/>
<path transform="translate(0,0)" fill="rgb(253,252,253)" d="M 628.721 402.661 C 672.175 418.344 699.854 415.445 744.6 413.75 C 757.818 413.249 771.621 412.129 784.771 413.744 C 791.494 414.569 799.88 416.289 804.044 422.162 C 805.286 423.912 804.941 423.667 804.607 425.554 C 763.997 427.242 724.385 431.754 683.588 428.587 C 661.099 426.842 643.511 420.025 628.721 402.661 z"/>
<path transform="translate(0,0)" fill="rgb(253,252,253)" d="M 555.826 178.241 C 564.264 176.999 572.628 178.353 581.041 179.404 C 564.021 211.259 618.843 237.6 590.958 263.393 C 577.36 248.633 583.717 232.693 571.871 216.129 C 565.52 206.458 551.156 202.018 544.602 192.908 C 539.954 186.446 551.912 179.963 555.826 178.241 z"/>
<path transform="translate(0,0)" fill="rgb(253,252,253)" d="M 629.789 81.6824 C 639.766 84.4667 643.787 88.2344 643.169 98.561 C 635.373 95.842 631.732 89.2659 629.789 81.6824 z"/>
<path transform="translate(0,0)" fill="rgb(5,4,5)" d="M 866.387 428.27 C 854.844 407.516 837.869 398.899 866.37 384.758 C 871.761 382.083 884.883 368.893 891.295 371.11 C 894.286 384.167 872.287 393.406 864.536 401.415 C 862.639 403.375 860.932 406.204 859.529 408.522 C 870.656 418.665 875.399 424.548 882.603 437.678 C 891.916 458.588 892.77 463.768 884.709 484.84 C 843.148 688.881 1009.04 752.202 998.525 865.96 C 994.95 852.783 993.352 840.1 989.343 826.629 C 980.676 797.508 966.123 774.216 949.966 749.058 C 947.08 744.146 944.833 740.579 941.568 735.895 C 884.473 652.558 866.535 605.511 875.347 505.026 C 852.686 509.686 843.437 491.957 826.235 478.83 C 816.822 471.791 806.405 466.209 795.332 462.269 C 750.262 446.205 721.331 466.269 677.086 461.456 C 670.404 460.729 646.871 455.465 642.582 449.987 L 643.019 449.009 C 646.848 448.336 667.092 449.031 673.022 448.983 C 689.57 448.869 706.102 447.928 722.557 446.163 C 737.222 444.638 751.804 442.396 766.25 439.445 C 777.114 437.12 795.479 431.876 805.575 431.54 C 761.286 448.783 700.857 453.21 653.533 451.936 C 668.474 456.316 686.272 460.169 701.886 458.646 C 739.648 454.962 761.308 445.585 799.809 460.262 C 813.249 465.442 825.651 472.99 836.426 482.55 C 841.618 487.218 850.463 496.789 856.505 499.851 C 863.341 503.314 874.023 505.966 877.436 496.549 L 876.417 495.791 L 875.081 496.085 C 865.676 498.069 861.4 496.886 853.231 491.182 C 840.553 482.437 814.777 457.745 814.119 440.547 C 812.604 400.989 848.12 412.475 866.387 428.27 z"/>
<path transform="translate(0,0)" fill="rgb(253,252,253)" d="M 880.125 481.47 C 874.614 524.366 787.957 436.008 826.407 419.633 C 847.836 410.508 866.556 430.025 874.448 446.972 C 879.038 445.676 874.163 443.641 882.603 437.678 C 891.916 458.588 892.77 463.768 884.709 484.84 C 882.717 481.689 884.066 482.933 880.125 481.47 z"/>
<path transform="translate(0,0)" fill="rgb(39,38,40)" d="M 874.448 446.972 C 879.038 445.676 874.163 443.641 882.603 437.678 C 891.916 458.588 892.77 463.768 884.709 484.84 C 882.717 481.689 884.066 482.933 880.125 481.47 C 879.124 467.076 878.465 460.784 874.448 446.972 z"/>
<path transform="translate(0,0)" fill="rgb(253,252,253)" d="M 886.721 375.031 L 887.379 376.201 C 885.368 384.332 866.655 394.415 860.499 401.552 L 856.222 406.457 C 854.536 403.777 853.343 402.498 853.141 399.299 C 859.232 390.624 877.364 381.143 886.721 375.031 z"/>
<path transform="translate(0,0)" fill="rgb(129,129,132)" d="M 866.127 421.554 C 872.216 424.244 874.69 429.809 877.473 435.444 C 872.679 433.464 868.747 425.949 866.127 421.554 z"/>
<path transform="translate(0,0)" fill="rgb(5,4,5)" d="M 1590.38 607.818 C 1581.93 613.267 1552.63 637.708 1542.67 633.388 L 1542.22 631.645 L 1543.63 630.172 C 1568.89 625.719 1569.98 603.528 1591.09 594.807 C 1601.27 590.6 1608.33 601.499 1610.39 610.043 L 1610.08 612.986 C 1608.45 614.628 1608.34 614.507 1606.17 615.429 C 1600.66 615.075 1595.33 610.89 1590.38 607.818 z"/>
<path transform="translate(0,0)" fill="rgb(253,252,253)" d="M 1569.7 618.307 C 1583.71 600.642 1591.42 587.55 1610.39 610.043 L 1610.08 612.986 C 1602.14 612.693 1593.32 604.934 1587.39 606.638 C 1583.62 607.722 1573.35 615.66 1569.7 618.307 z"/>
</svg>