<svg version="1.1" xmlns="http://www.w3.org/2000/svg" style="display: block;" viewBox="0 0 993 2048" width="399" height="823" preserveAspectRatio="none">
<path transform="translate(0,0)" fill="rgb(255,255,255)" d="M 0 0 L 993 0 L 993 2048 L 0 2048 L 0 0 z"/>
<path transform="translate(0,0)" fill="rgb(33,32,33)" d="M 533.186 50.0503 C 560.288 57.2474 584.209 61.3525 611.771 65.6315 C 621.465 67.2812 634.177 76.7084 643.396 77.7585 C 672.994 81.1302 706.665 80.228 733.926 93.5841 C 737.948 95.5543 751.885 108.351 756.037 111.829 C 780.862 105.711 808.541 109.122 832.575 116.673 C 844.255 142.455 854.176 162.722 855.099 191.523 C 957.966 218.296 872.419 308.473 867.466 363.026 L 867.427 363.487 C 858.292 369.561 843.907 373.402 836.227 378.347 C 787.816 409.519 796.735 493.319 783.359 543.284 C 772.847 582.549 758.087 611.945 725.158 636.982 C 717.637 642.701 706.444 648.725 698.278 653.689 C 719.626 654.389 744.154 652.725 764.825 647.222 C 825.422 631.089 877.453 617.262 928.03 666.352 C 857.686 659.117 833.342 681.735 773.216 705.822 C 730.24 723.038 673.951 712.045 632.555 695.708 C 620.766 691.055 605.174 682.761 593.251 676.799 C 601.478 718.256 604.251 776.397 602.701 818.621 C 601.591 848.253 599.539 877.842 596.547 907.343 C 595.586 916.601 594.479 925.822 593.062 935.031 C 592.452 938.995 592.778 940.241 596.137 942.107 C 596.553 943.966 591.121 955.202 589.846 958.23 C 592.708 955.965 603.337 947.562 606.233 946.33 C 617.358 941.597 647.442 933.45 659.02 932.258 L 660.104 933.814 C 660.363 938.172 659.176 941.039 657.859 945.149 C 679.954 935.853 700.738 937.148 724.109 935.87 C 721.465 940.329 719.226 945.282 716.982 949.976 C 727.686 948.004 739.87 946.074 750.772 947.608 C 777.075 951.309 790.624 959.487 818.192 955.916 C 797.437 977.342 794.357 1001.88 776.412 1024.91 C 770.281 1032.78 764.82 1034.45 758.354 1040.23 L 758.826 1041.43 C 764.934 1044.16 777.839 1037.06 783.389 1034.04 C 772.605 1055.5 760.757 1070.4 742.88 1086.05 C 755.847 1085.75 759.73 1085.6 771.8 1081.27 C 769.235 1089.24 765.732 1096.87 761.362 1104.02 C 745.971 1129.52 723.6 1144.93 695.029 1151.91 L 714.549 1156.46 C 713.74 1157.78 712.884 1159.06 711.982 1160.31 C 697.177 1180.64 668.016 1185.08 644.981 1188.76 C 654.975 1194.87 657.962 1195.12 669.497 1197.57 C 637.247 1210.99 625.737 1213.97 591.036 1207.57 C 598.809 1215.61 602.259 1219.52 612.192 1224.44 C 583.617 1230.01 567.697 1227.92 539.931 1222.49 C 526.037 1300.67 512.131 1367.39 503.456 1447.79 C 519.22 1427.28 539.863 1406.04 553.467 1384.36 C 557.338 1378.2 560.022 1364.35 561.913 1356.8 C 562.404 1369.74 561.653 1376.71 559.248 1389.43 C 577.075 1369.86 596.895 1348.85 621.187 1337.45 C 630.391 1333.15 640.14 1330.14 650.161 1328.5 C 664.979 1325.97 737.145 1322.89 749.329 1327.27 C 750.675 1330.9 747.435 1329.65 747.851 1335.33 C 754.201 1339.56 808.502 1361.48 816.94 1363.83 C 811.088 1369.88 808.499 1371.38 801.015 1374.48 C 823.201 1380.8 833.276 1390.94 853.036 1401.04 C 848.287 1403.41 839.185 1406.41 833.872 1408.31 C 851.732 1417.29 868.193 1434.26 885.83 1443.7 L 871.637 1446.84 C 879.459 1450.03 906.284 1467.97 912.048 1474.07 L 911.693 1476.22 C 907.879 1481.51 902.16 1484.3 896.392 1487.08 C 910.454 1497.38 914.198 1513.75 921.083 1528.87 C 924.086 1535.46 927.377 1541.28 930.172 1548.06 C 926.913 1554.09 905.087 1543.29 900.409 1540.99 C 913.151 1558.16 931.048 1572.58 947.367 1586.36 C 934.91 1585.38 920.469 1583.05 907.738 1581.74 C 889.154 1579.99 870.5 1579.08 851.834 1579 L 868.785 1588.7 C 842.138 1596.03 790.904 1597.9 763.852 1590.34 L 782.215 1610.92 C 749.315 1606.65 729.406 1604.1 703.192 1581.84 L 702.135 1593.57 C 682.547 1587.02 671.37 1577.25 656.815 1563.42 C 658.291 1570.46 660.177 1577.07 662.098 1584 C 641.095 1565.95 627.048 1565.66 608.983 1541.87 C 608.996 1549.23 609.661 1557.19 610.141 1564.59 C 586.126 1533.01 575.908 1534.16 559.745 1493.91 C 559.064 1501.97 557.563 1508.72 555.425 1516.46 C 550.354 1501.15 541.132 1487.4 537.842 1471.47 C 535.046 1457.92 535.806 1444.03 536.144 1430.31 C 533.473 1432.32 530.947 1434.51 528.587 1436.88 C 517.263 1448.21 501.115 1474.06 498.786 1489.94 C 496.642 1504.57 495.407 1524 494.463 1539.02 C 491.217 1586.61 489.72 1634.3 489.975 1682.01 C 500.888 1689.6 507.675 1693.51 520.555 1696.19 C 510.277 1708.13 501.389 1712.8 491.219 1727.68 C 494.72 1825.35 506.127 1920.99 528.357 2016.1 C 529.524 2021.09 530.903 2025.12 528.333 2029.08 C 521.845 2033.39 510.042 2032.7 503.825 2028.31 C 498.819 2021.42 493.421 1990.48 491.334 1980.23 C 467.566 1861.42 457.65 1740.27 461.787 1619.18 C 396.196 1545.85 408.363 1436.8 414.489 1346.17 C 417.129 1307.11 430.266 1256.76 396.829 1228.18 C 409.033 1267.67 405.094 1290.72 376.967 1321.1 C 377.791 1305.05 376.62 1297.51 370.666 1282.57 C 369.794 1287.32 368.897 1292.06 367.975 1296.79 C 361.063 1332.07 351.358 1339.44 322.472 1358.88 C 324.558 1348.86 324.433 1336.9 324.373 1326.62 C 299.002 1366.08 284.532 1367.42 239.455 1370.25 C 244.085 1365.64 249.248 1357.55 253.086 1351.96 C 220.729 1368.72 203.028 1368.6 166.567 1367.84 C 175.334 1362.71 183.884 1355.59 191.913 1349.27 C 152.485 1355.03 135.844 1359.05 94.4185 1359.15 C 101.734 1356.54 109.96 1350.33 116.587 1345.87 C 88.6577 1342.61 70.9346 1346.4 46.9343 1360.2 C 77.6848 1321.05 76.1789 1274.72 117.783 1243.59 L 108.743 1244.26 C 100.913 1245.36 94.5463 1247.81 87.2256 1250.6 C 100.603 1233.33 110.817 1214.22 128.209 1200.01 C 133.567 1195.71 139.379 1192 145.543 1188.95 C 149.547 1186.97 166.331 1181.17 167.502 1179.49 L 166.342 1177.75 C 159.478 1174.76 148.86 1175.54 141.592 1176.29 C 167.044 1145.86 210.893 1133.4 248.88 1143.56 C 238.715 1134.12 233.035 1132.09 220.231 1128.33 C 222.499 1127.92 224.772 1127.54 227.049 1127.18 C 266.539 1120.93 290.627 1123.84 322.818 1147.22 C 317.611 1138.04 315.085 1134.32 307.507 1127.04 C 349.675 1135.53 383.519 1163.15 385.348 1207.99 C 402.457 1215.61 412.31 1226.33 421.32 1242.26 C 421.458 1208.39 417.893 1125.52 384.64 1102.8 C 378.577 1098.66 365.098 1104.27 358.24 1107.27 C 290.641 1136.86 208.358 1089.2 145.963 1063.31 C 160.251 1062.67 174.031 1062.58 188.42 1061.66 C 151.615 1054.23 121.549 1033.48 95.4674 1007.15 C 106.222 1008.74 117.282 1008.24 128.099 1007.71 C 95.4077 991.292 83.2882 969.5 69.2489 935.895 C 80.2439 940.412 90.4973 943.365 101.888 946.389 C 73.8843 924.369 67.8912 903.309 53.5359 871.331 C 64.279 876.096 72.3484 879.909 83.8499 882.544 C 59.6295 849.924 50.0213 824.337 45.5701 784.439 C 52.2347 789.416 58.9359 794.344 65.6732 799.222 C 56.3885 764.933 61.9359 743.122 44.779 709.655 C 78.2363 710.152 113.779 716.953 146.224 724.665 C 138.457 716.17 131.7 711.334 122.307 704.7 C 169.999 700.384 191.84 705.027 234.004 729.135 C 231.715 723.929 229.668 718.373 227.613 713.053 C 270.153 723.261 296.866 741.675 320.936 777.339 L 320.737 749.236 C 359.747 778.47 373.181 800.851 387.284 847.473 C 389.018 840.367 390.866 833.29 392.827 826.244 C 416.026 869.275 422.228 891.121 416.518 939.704 L 431.928 913.873 C 436.397 957.342 433.379 1008.12 417.491 1048.69 C 413.788 1058.15 399.416 1075.58 400.281 1083.86 C 401.853 1098.9 415.627 1121.21 420.97 1137.21 C 430.3 1165.14 431.16 1183.11 434.602 1210.61 C 441.435 1186.68 446.859 1166.65 458.002 1144.29 C 410.247 1118.44 438.063 1059.83 445.48 1018.98 C 446.008 1016.07 446.705 1013.15 447.281 1010.25 C 453.94 1014.52 456.736 1016.33 462.441 1021.75 C 470.035 987.767 493.096 982.351 516.338 957.936 C 515.956 963.171 515.234 968.774 514.658 974.023 C 521.22 967.661 546.719 943.317 556.136 947.394 C 558.085 955.862 544.329 959.823 538.75 964.196 C 523.991 975.763 514.646 991.562 504.921 1007.18 C 506.006 998.999 506.029 994.526 505.948 986.218 C 480.508 1013.37 475.366 1005.74 466.789 1047.97 C 463.445 1040.67 460.311 1037.76 454.633 1032.48 C 451.88 1048.7 447.406 1065.68 444.167 1081.79 C 440.229 1107.79 456.704 1141.13 478.762 1105.03 C 490.974 1085.05 500.861 1070.81 507.465 1047.02 C 511.973 1030.77 518.993 1018.37 532.229 1007.27 C 521.765 1026.26 513.438 1055.72 507.893 1076.91 C 515.785 1071.8 524.206 1066.05 532.737 1062.24 L 528.378 1082.86 C 513.9 1090.56 503.24 1098.63 492.706 1111.11 C 502.225 1109.23 511.917 1109.65 521.554 1109.98 L 519.285 1121.93 C 497.816 1121.45 467.139 1123.13 473.192 1155.59 C 475.771 1169.42 490.674 1180.72 502.409 1187.69 L 499.349 1200.43 C 481.073 1189.95 470.189 1179.03 462.319 1159.36 C 448.754 1183.15 449.113 1202.59 442.021 1226.96 C 433.06 1257.75 433.427 1281.55 431.096 1313.2 C 434.691 1304.71 437.847 1297.13 442.176 1288.94 C 440.581 1317.04 435.348 1325.14 428.418 1351.45 C 426.265 1359.62 424.67 1391.68 424.389 1401.35 C 422.452 1467.86 425.669 1522.16 463.344 1579.44 C 466.468 1509.01 473.214 1438.8 483.554 1369.06 C 478.531 1358.17 471.554 1351.69 462.393 1344.44 C 470.926 1338.54 481.945 1330.09 490.82 1325.49 C 509.673 1211.32 539.098 1098.99 556.374 984.522 C 562.089 946.657 567.331 909.764 569.522 871.481 C 561.649 860.796 554.75 856.976 543.865 849.871 C 556.321 842.473 564.308 835.823 572.16 823.789 C 575.917 781.721 569.922 716.955 564.217 674.952 C 531.862 695.815 508.607 703.476 469.192 704.143 C 439.542 704.645 415.972 696.602 394.69 675.658 C 392.345 675.775 389.999 675.878 387.653 675.969 C 322.313 678.469 294.238 646.452 271.772 588.439 C 264.775 570.372 260.414 553.782 246.124 540.539 C 256.197 542.009 266.108 543.091 275.42 547.432 C 317.294 566.954 316.301 606.593 367.933 610.574 C 366.456 602.383 362.254 595.026 361.285 587.323 C 361.154 586.282 362.388 585.871 363.512 585.173 C 374.334 584.864 393.901 601.004 401.738 607.612 C 411.922 606.681 418.75 605.159 428.336 601.902 C 407.23 569.924 397.53 540.447 399.178 501.533 C 400.053 480.862 405.634 458.716 396.391 439.115 C 384.786 414.505 346.747 400.472 322.36 391.589 C 328.615 374.254 335.65 356.642 339.294 338.454 C 344.105 314.443 334.917 313.423 326.075 298.786 C 296.07 249.114 322.716 180.576 332.587 129.796 C 363.53 108.222 410.393 107.829 446.546 108.062 C 456.349 98.1352 464.445 91.1138 476.798 84.2353 C 497.015 72.9773 519.47 70.3404 533.186 50.0503 z"/>
<path transform="translate(0,0)" fill="rgb(255,255,255)" d="M 155.036 715.096 C 206.152 722.911 222.259 737.191 260.796 766.64 L 255.25 742.26 C 288.473 757.085 314.218 784.63 332.134 815.737 C 331.984 803.522 331.765 792.897 330.862 780.711 C 369.948 814.041 381.978 849.93 382.105 900.074 C 387.209 887.042 391.425 881.396 394.836 866.782 C 410.957 907.828 407.309 940.676 400.166 982.883 C 408.507 973.505 411.965 967.29 417.833 956.134 C 416.712 983.514 414.44 1011.66 406.717 1037.43 C 398.915 1063.47 384.829 1060.96 372.009 1041.32 C 359.783 1022.58 342.784 1005.67 335.471 983.806 C 332.993 975.815 333.931 966.484 334.504 958.27 C 336.856 924.549 345.102 899.886 329.308 867.856 C 336.181 913.547 322.482 931.644 320.699 975.016 C 302.47 954.238 278.96 938.789 263.481 921.903 C 253.778 882.816 265.696 860.012 243.022 816.53 C 253.412 859.222 248.204 872.369 249.878 912.947 L 218.455 884.957 C 195.349 864.177 186.878 852.935 182.871 821.424 C 180.697 804.332 179.233 793.203 171.22 778.014 C 175.557 801.181 175.25 824.475 178.843 848.297 C 161.6 829.142 146.501 799.117 130.94 778.221 C 141.505 807.958 168.416 844.924 187.785 869.882 C 180.306 867.331 168.39 865.418 160.222 864.127 C 141.374 861.15 132.994 857.367 116.802 848.517 C 135.787 867.493 150.65 869.613 175.873 875.941 C 214.975 888.512 233.959 917.591 264.957 943.321 C 216.14 939.388 189.65 939.127 144.432 917.051 C 181.322 951.091 210.823 949.279 257.964 954.977 C 291.415 959.02 320.193 997.006 339.407 1023.69 C 284.895 1006.48 248.722 1018.71 196.144 1003.9 C 248.602 1037.85 333.576 1005.69 369.424 1066.05 C 377.827 1080.2 361.746 1092.78 350.045 1097.53 C 299.073 1118.2 236.145 1090.59 188.57 1070.95 C 207.251 1069.38 215.952 1069.15 233.833 1063.64 C 187.151 1056.63 168.684 1048.32 132.499 1018.48 C 142.95 1016.83 150.96 1015.52 161.287 1012.9 C 126.709 999.154 107.919 987.26 90.1343 954.627 C 104.013 957.463 117.659 958.629 131.785 959.193 C 103.468 939.069 91.968 921.714 75.688 891.422 C 81.4596 892.503 97.1866 894.814 102.314 892.693 C 102.899 890.138 92.8643 880.399 90.4187 877.062 C 75.0757 856.127 65.5826 830.388 59.4363 805.675 C 68.9437 812.219 78.5813 818.571 88.3433 824.728 C 65.6428 789.569 76.607 764.42 61.8411 724.777 C 102.197 725.586 142.165 732.83 180.238 746.235 C 172.206 735.562 163.801 725.176 155.036 715.096 z"/>
<path transform="translate(0,0)" fill="rgb(255,255,255)" d="M 575.197 1405.17 C 582.61 1358.02 669.038 1331.76 709.99 1334.62 C 715.264 1334.99 727.241 1333.79 731.741 1335.27 C 731.452 1339.36 723.335 1342.42 719.799 1344.07 C 760.778 1344.91 761.128 1355.52 794.459 1365.05 C 784.408 1369.46 778.969 1370.52 768.395 1373.12 C 792.498 1376.13 807.323 1384.63 826.593 1398.64 C 815.553 1399.5 803.644 1400.21 792.712 1401.54 C 831.207 1409.34 835.286 1421.81 866.552 1439.76 L 845.459 1441.91 C 866.754 1451.16 878.564 1464.53 900.652 1474.13 C 890.744 1480.4 888.572 1481.61 876.918 1483.46 C 892.335 1494.22 901.906 1515.75 912.88 1532.11 C 899.589 1528.53 892.012 1524.36 879.646 1518.15 C 888.08 1538.82 896.056 1556.69 914.274 1570.04 C 900.189 1567.59 824.784 1556.34 815.403 1563.2 C 814.825 1569.49 827.803 1577.32 833.026 1580.03 C 823.789 1589.52 760.712 1572.05 746.913 1567.17 C 748.708 1578.9 750.469 1584.32 755.109 1595.29 C 731.026 1588.56 714.795 1578.05 696.393 1561.57 C 695.934 1567.76 695.505 1572.95 695.665 1579.17 C 680.769 1570.28 671.271 1562.78 659.805 1549.43 C 655.979 1544.98 650.368 1536.55 646.324 1533.32 C 642.845 1536.35 645.997 1550.35 646.768 1555.24 C 616.188 1538.34 616.295 1517.99 594.916 1496 C 594.805 1506.28 595.341 1517.53 597.066 1527.68 C 578.782 1509.58 566.575 1485.41 560.732 1460.44 C 558.622 1466.97 556.269 1473.83 554.645 1480.46 C 550.283 1468.24 536.138 1431.19 555.878 1425.4 C 564.741 1422.8 581.263 1420.24 589.614 1425.28 C 625.087 1448.7 629.375 1505.64 666.242 1532.05 C 658.696 1521.52 653.605 1514.05 648.037 1502.12 C 634.126 1472.33 629.264 1445.03 605.092 1420.87 C 632.91 1422.1 689.187 1426.82 707.809 1447.81 C 730.197 1473.05 729.904 1509.65 755.889 1534.47 C 738.615 1502.68 740.375 1477.53 719.918 1447.38 C 737.872 1455.86 795.139 1483 804.71 1499.5 C 815.263 1517.69 814.276 1530.23 834.688 1547.52 C 824.11 1531.1 819.105 1521.61 815.195 1502.09 C 818.625 1504.47 861.092 1535.48 861.379 1535.53 C 856.445 1528.95 845.118 1519.6 838.712 1513.29 C 804.983 1480.08 776.035 1454.23 733.789 1432.14 C 768.288 1427.54 785.566 1422.48 819.138 1433.99 C 796.196 1417.58 772.651 1418.23 745.852 1422.61 C 739.837 1423.59 723.22 1425.97 718.324 1424.33 C 692.564 1415.67 669.612 1409.17 641.92 1407.29 C 665.605 1393.79 695.81 1368.55 721.252 1364.32 C 720.464 1362.04 720.312 1362.01 718.271 1360.55 C 678.892 1362.24 655.293 1391.35 620.752 1404.03 C 615.595 1405.93 583.627 1404.77 575.197 1405.17 z"/>
<path transform="translate(0,0)" fill="rgb(49,47,46)" d="M 718.271 1360.55 C 721.767 1360.51 724.578 1360.23 727.838 1361.5 L 727.75 1362.66 C 725.362 1363.39 723.757 1363.95 721.252 1364.32 C 720.464 1362.04 720.312 1362.01 718.271 1360.55 z"/>
<path transform="translate(0,0)" fill="rgb(255,255,255)" d="M 258.242 1138.65 C 290.156 1138.55 313.999 1151.92 336.977 1172.55 C 334.739 1165.15 332.833 1156.3 331.008 1148.68 C 350.511 1158.67 368.172 1176.04 371.867 1198.57 C 372.445 1202.1 372.616 1204.14 370.516 1207.01 C 367.201 1207.37 350.893 1204.92 345.58 1204.51 C 331.943 1203.47 311.388 1203.45 298.719 1199.64 C 267.91 1190.37 252.199 1174.61 218.775 1174.61 C 253.339 1183.33 257.985 1193.43 287.689 1206.33 C 255.461 1214.64 238.977 1227.76 208.629 1239.3 C 185.163 1248.23 156.671 1247.12 136.984 1262.67 C 166.774 1251.59 177.035 1256.4 203.66 1250.28 C 189.957 1259.55 169.825 1268.62 155.013 1276.54 C 133.904 1287.82 122.315 1296.62 105.014 1312.13 C 118.351 1305.89 131.381 1294.17 145.738 1287.74 C 180.199 1272.31 210.932 1259.96 241.677 1237.14 C 235.496 1251.32 230.806 1266.09 224.866 1280.22 C 220.791 1289.92 212.837 1302.99 207.355 1312.22 C 217.515 1300.44 227.809 1288.44 235.089 1274.66 C 243.471 1258.92 248.181 1237.15 264.872 1227.79 C 281.283 1218.59 304.417 1216.86 322.877 1215.14 C 320.07 1222.97 318.942 1227.08 317.206 1235.22 C 313.9 1256.54 312.653 1268.54 304.746 1288.89 C 323.724 1266.38 319.311 1241.77 331.918 1214.41 C 343.058 1214.89 361.57 1215.17 371.747 1218.92 C 400.463 1229.52 391.348 1276.39 383.385 1297.36 C 380.405 1287.56 373.857 1276.83 367.303 1268.99 C 355.037 1291.3 363.44 1310.63 335.317 1330.82 C 335.315 1316.96 334.923 1310.87 329.617 1298.13 C 319.204 1327.12 298.103 1352.82 265.643 1355.1 C 267.877 1348.43 271.28 1340.36 273.884 1333.7 C 249.483 1346.94 227.886 1354.74 200.397 1357.89 C 204.99 1351.5 207.852 1344.98 210.64 1337.69 C 182.538 1342.76 164.381 1346.56 135.945 1348.59 L 146.541 1339.32 C 119.777 1333.71 94.162 1335.5 67.8477 1341.9 L 79.0035 1316.23 C 96.3283 1276.73 109.048 1252.06 150.42 1235.92 C 137.566 1234.77 123.22 1234.98 110.226 1234.91 C 111.244 1233.32 112.288 1231.75 113.355 1230.2 C 131.867 1203.34 161.296 1190.95 192.258 1185.27 C 183.786 1179.22 177.312 1173.9 167.983 1169.1 C 168.665 1168.65 169.356 1168.22 170.056 1167.81 C 203.373 1148.07 236.075 1151.41 272.619 1160.91 C 267.979 1153.03 263.353 1146.19 258.242 1138.65 z"/>
<path transform="translate(0,0)" fill="rgb(255,255,255)" d="M 802.858 396.093 L 803.599 397.7 C 794.613 418.358 785.728 440.334 780.762 462.276 C 774.853 489.3 772.857 516.783 767.894 543.984 C 759.677 589.026 728.267 630.706 681.995 640.669 C 678.74 641.37 675.759 641.996 672.936 640.126 C 673.089 636.82 686.712 618.091 689.21 611.112 C 694.903 595.204 695.77 587.752 696.386 570.971 C 684.037 612.574 646.832 661.921 597.734 649.308 C 614.622 635.847 625.302 624.541 632.809 603.832 C 633.833 600.021 634.741 595.548 635.635 591.649 C 623.58 609.248 611.018 627.406 593.457 638.61 C 539.162 673.061 507.01 607.532 517.692 561.371 C 527.173 520.4 550.294 520.983 584.368 509.189 C 600.956 503.329 617.372 496.994 633.597 490.194 C 690.647 465.654 750.972 430.679 802.858 396.093 z"/>
<path transform="translate(0,0)" fill="rgb(255,255,255)" d="M 589.025 968.218 C 608.43 954.506 625.011 948.188 648.621 944.635 C 646.417 953.647 644.911 957.311 640.355 965.607 C 661.409 948.96 678.631 947.501 704.719 947.656 C 693.896 958.891 689.359 963.908 683.722 978.496 C 722.284 949.098 755.475 955.902 800.516 964.697 C 787.245 992.239 772.085 1026.2 741.021 1037.11 C 733.245 1039.84 725.769 1040.45 717.62 1041.33 C 734.04 1048.58 742.241 1048.99 760.24 1049.83 C 744.2 1071.79 738.453 1078.2 712.847 1089.13 C 726.893 1093.77 738.186 1096.45 753.014 1094.9 C 733.53 1133.34 704.777 1145.88 662.465 1141.74 C 673.803 1154.18 680.058 1155.12 695.623 1160.61 C 668.129 1178.39 637.899 1181.47 606.044 1175.34 C 618.858 1184.76 628.868 1190.25 642.111 1198.65 C 611.854 1207.59 589.437 1202.13 560.374 1190.58 C 567.272 1201.53 572.124 1208.15 583.092 1215.57 C 564.048 1214.91 560.437 1213 542.56 1209.14 L 546.854 1187.27 C 557.663 1178.57 560.605 1176.61 574.464 1173.81 C 567.032 1166.67 560.298 1158.84 554.354 1150.41 L 557.621 1135.17 C 565.834 1137.22 583.984 1142.08 591.801 1142.12 C 596.781 1142.07 598.069 1142.82 602.058 1140.49 C 587.276 1136.81 574.254 1132.39 559.918 1127.19 C 562.799 1111.94 565.787 1096.71 568.882 1081.5 C 604.836 1084.93 642.876 1101.19 677.761 1098.88 C 652.149 1091.72 626.598 1085.1 601.255 1076.65 C 593.302 1074 575.796 1073.96 571.353 1068.48 C 573.352 1059.59 612.62 1048.74 622.082 1048.54 C 654.856 1047.88 677.887 1055.57 711.688 1050.72 C 684.871 1048.25 669.198 1045.15 643.174 1037.97 C 665.66 1028.59 723.515 1004.23 739.855 988.625 C 737.838 988.818 730.974 993.44 728.731 994.591 C 688.485 1015.25 642.271 1028.96 599.153 1042.37 C 614.643 1023.51 625.08 1005.35 630.785 981.616 C 607.862 1016.02 608.997 1020.82 575.544 1049.9 C 576.944 1035.37 580.619 1018.23 583.056 1003.58 C 584.827 992.929 586.613 978.089 589.025 968.218 z"/>
<path transform="translate(0,0)" fill="rgb(49,47,46)" d="M 602.058 1140.49 C 605.989 1140.7 611.43 1140.76 615.063 1141.89 C 610.398 1143.85 596.612 1143.45 591.801 1142.12 C 596.781 1142.07 598.069 1142.82 602.058 1140.49 z"/>
<path transform="translate(0,0)" fill="rgb(255,255,255)" d="M 439.338 179.961 C 439.753 180.043 440.93 180.771 441.378 181.025 C 443.125 190.437 448.595 197.93 452.685 206.595 C 463.38 229.256 461.905 247.311 453.998 270.213 C 443.365 239.052 430.934 221.113 401.41 205.762 C 422.534 227.75 439.777 260.511 438.591 291.753 C 438.245 300.857 434.342 313.331 431.892 322.313 C 427.947 297.908 418.968 285.802 396.863 274.654 C 405.816 285.369 418.495 301.608 418.714 315.981 C 419.068 339.196 421.948 349.838 432.055 370.891 C 414.046 373.292 410.333 370.824 392.632 378.385 C 422.625 379.68 441.988 383.963 468.525 399.581 C 476.156 404.072 485.183 410.604 492.829 414.302 C 526.479 422.783 556.585 422.729 586.88 445.238 C 585.192 446.515 583.435 447.699 581.617 448.785 C 534.548 476.616 491.157 459.813 448.94 433.594 C 420.737 416.078 378.828 392.24 347.034 383.943 C 348.194 366.795 350.014 349.698 352.49 332.69 C 358.872 291.287 365.158 273.232 361.557 229.863 C 378.776 211.653 415.657 187.937 439.338 179.961 z"/>
<path transform="translate(0,0)" fill="rgb(255,255,255)" d="M 849.792 208.146 C 857.444 206.859 865.319 208.403 871.997 212.046 C 898.727 226.626 890.764 258.093 880.786 280.072 C 868.353 307.46 855.777 333.204 841.071 359.003 C 813.536 374.752 787.322 385.234 759.022 403.821 C 731.499 421.897 707.106 445.658 678.302 458.571 C 630.059 480.198 586.156 486.5 537.294 510.023 C 562.645 481.976 586.605 465.551 618.942 447.764 C 643.696 434.269 687.595 417.499 714.99 410.054 C 702.956 410.027 693.528 411.175 681.768 413.395 C 707.269 379.905 774.878 359.823 814.297 349.39 C 801.833 348.956 782.331 352.285 769.629 354.119 C 807.685 327.035 829.946 306.235 842.754 260.227 C 826.427 288.343 817.121 302.097 792.395 322.768 C 797.102 285.494 806.528 219.953 849.792 208.146 z"/>
<path transform="translate(0,0)" fill="rgb(255,255,255)" d="M 477.553 225.573 C 512.891 240.891 549.85 257.383 580.535 281.152 C 591.955 289.999 616.753 315.086 618.104 329.666 C 618.456 333.371 617.28 337.058 614.848 339.876 C 605.557 350.773 581.1 352.295 567.5 353.651 C 555.384 354.704 543.383 356.81 531.632 359.944 C 506.127 366.921 473.905 382.496 450.101 361.188 C 436.897 349.368 453.84 326.75 459.596 313.81 C 472.505 284.787 477.274 257.082 477.553 225.573 z"/>
<path transform="translate(0,0)" fill="rgb(255,255,255)" d="M 405.749 430.243 C 410.12 431.424 428.583 442.873 434.259 445.675 C 472.418 464.514 505.244 478.603 548.385 478.233 C 540.661 484.386 533.56 491.284 527.186 498.826 C 506.63 523.351 496.733 555.076 499.698 586.939 C 502.352 615.223 513.26 630.864 534.373 648.246 C 522.905 645.94 515.743 643.014 506.172 636.566 C 487.846 621.76 478.737 605.25 468.076 584.309 C 465.761 579.76 462.663 568.438 460.317 566.351 C 455.105 580.114 475.489 617.746 483.603 629.382 C 436.972 613.613 415.477 563.846 416.182 518.367 C 416.79 479.125 418.209 469.487 405.749 430.243 z"/>
<path transform="translate(0,0)" fill="rgb(255,255,255)" d="M 772.22 122.415 C 792.652 120.539 804.566 126.94 823.198 134.6 C 827.946 154.031 835.176 163.985 839.177 187.365 C 811.571 207.165 806.051 226.398 786.253 249.919 C 772.382 266.398 742.433 282.775 722.89 299.319 C 710.864 309.683 699.332 320.608 688.333 332.056 C 672.165 349.11 668.442 357.999 644.772 364.781 C 598.151 378.138 549.745 378.405 501.724 382.525 C 504.187 380.948 507.373 379.384 510.012 378.005 C 546.63 363.829 585.889 370.908 621.602 356.013 C 642.48 344.756 649.078 321.214 667.087 304.216 C 696.073 276.858 728.503 263.279 760.898 241.747 C 769.897 235.766 781.172 217.084 787.992 208.166 C 796.366 197.216 801.934 190.628 812.51 181.269 C 793.143 188.994 777.816 200.391 760.853 212.261 C 768.353 191.309 770.939 174.099 769.186 151.895 C 768.743 146.293 766.127 127.061 768.093 123.306 L 772.22 122.415 z"/>
<path transform="translate(0,0)" fill="rgb(255,255,255)" d="M 646.824 91.3984 C 647.466 91.3343 648.371 91.3512 648.893 91.2803 C 664.021 89.8498 716.4 100.106 725.668 110.958 C 753.673 145.674 766.255 193.922 737.066 231.89 C 715.943 259.365 688.022 267.799 660.994 287.408 C 653.525 292.827 644.257 303.059 637.639 309.758 C 636.833 310.371 637.263 310.109 635.899 310.078 C 635.669 306.679 637.629 302.696 638.969 299.393 C 655.217 259.199 698.609 228.99 705.533 184.998 C 714.585 127.498 642.818 112.351 600.6 107.208 C 616.48 97.8045 628.305 93.3544 646.824 91.3984 z"/>
<path transform="translate(0,0)" fill="rgb(255,255,255)" d="M 786.771 267.772 C 788.215 273.975 783.757 305.969 781.233 313.003 C 764.001 361.029 707.902 382.251 665.625 403.017 C 636.424 417.36 608.828 432.647 574.866 423.026 C 555.489 417.243 535.487 409.25 515.635 402.953 C 518.21 401.101 521.017 399.386 523.706 397.68 C 554.943 384.233 601.805 387.972 634.645 381.328 C 654.688 377.273 679.333 363.219 698.892 355.819 C 713.735 350.202 721.128 349.057 736.418 346.076 C 720.401 343.533 711.382 343.903 695.279 344.267 C 713.34 322.668 727.599 312.143 751.876 298.567 C 764.278 291.631 777.219 278.351 786.771 267.772 z"/>
<path transform="translate(0,0)" fill="rgb(255,255,255)" d="M 432.629 123.449 C 455.402 123.79 464.328 124.329 486.804 129.988 C 465.151 134.666 445.024 139.608 440.834 164.89 C 393.848 172.376 386.036 198.558 344.552 222.716 C 344.353 234.504 345.077 248.646 345.406 260.595 C 345.291 273.555 344.997 283.224 342.636 295.936 C 325.414 269.902 322.136 260.401 327.208 229.206 C 332.617 195.926 341.625 164.417 355.13 133.497 C 384.696 126.348 402.762 124.523 432.629 123.449 z"/>
<path transform="translate(0,0)" fill="rgb(255,255,255)" d="M 834.026 644.356 C 858.857 642.419 872.195 643.993 894.919 654.866 C 883.034 654.977 865.544 655.076 854.439 658.086 C 790.359 675.452 757.87 717.009 686.509 697.62 C 670.322 693.204 638.893 676.335 621.848 668.465 C 638.168 668.203 657.009 665.912 673.435 665.177 C 682.501 664.771 693.368 666.813 702.418 667.218 C 747.599 669.239 789.377 650.014 834.026 644.356 z"/>
<path transform="translate(0,0)" fill="rgb(255,255,255)" d="M 555.845 118.361 C 589.288 114.688 663.265 127.219 683.007 161.311 C 688.464 170.734 685.864 181.524 682.631 191.343 C 665.853 163.935 641.435 147.356 611.217 137.595 C 564.947 127.489 528.822 138.246 513.981 186.726 C 430.648 158.267 514.801 123.887 555.845 118.361 z"/>
<path transform="translate(0,0)" fill="rgb(255,255,255)" d="M 538.04 67.8268 C 567.656 76.3479 596.239 74.0897 620.166 83.6342 C 601.43 89.6371 596.155 94.4155 579.238 103.037 C 572.573 106.434 548.927 111.241 540.78 113.059 C 506.034 120.522 498.032 115.658 462.054 112.505 C 478.317 89.9626 511.548 82.2694 538.04 67.8268 z"/>
<path transform="translate(0,0)" fill="rgb(255,255,255)" d="M 271.753 559.567 C 284.109 562.154 302.047 588.939 311.488 598.49 C 330.371 617.593 345.013 623.463 371.408 624.061 C 375.909 641.57 377.75 648.588 386.795 664.081 C 341.488 665.004 312.289 644.2 292.226 603.136 C 284.78 587.895 281.157 574.164 271.753 559.567 z"/>
<path transform="translate(0,0)" fill="rgb(255,255,255)" d="M 644.497 164.054 C 698.053 187.01 663.306 228.303 640.452 257.251 C 633.937 265.503 628.91 274.174 624.548 283.747 L 621.244 290.965 C 592.717 255.613 624.703 245.966 640.95 217.901 C 653.508 196.208 650.436 186.577 644.497 164.054 z"/>
<path transform="translate(0,0)" fill="rgb(255,255,255)" d="M 380.293 603.671 C 403.342 613.283 431.095 656.572 449.61 674.577 C 455.237 680.05 469.163 688.155 471.411 691.603 C 471.038 691.651 470.665 691.693 470.29 691.73 C 452.036 693.522 426.275 687.644 412.164 675.462 C 390.207 656.508 383.061 631.163 380.293 603.671 z"/>
<path transform="translate(0,0)" fill="rgb(255,255,255)" d="M 534.087 180.288 C 538.353 182.118 542.639 187.199 548.357 189.338 C 564.373 195.331 592.751 193.904 602.98 209.606 C 609.942 220.293 599.463 243.588 596.243 255.345 L 594.621 264.992 C 584.123 249.158 572.389 232.309 559.951 217.865 C 553.152 209.97 540.101 202.021 534.018 193.188 C 531.519 189.56 533.097 184.286 534.087 180.288 z"/>
<path transform="translate(0,0)" fill="rgb(255,255,255)" d="M 462.261 176.562 C 494.184 201.844 529.845 201.091 553.696 235.679 C 557.244 240.825 561.575 245.339 564.236 251.233 C 547.119 238.266 531.185 232.86 511.731 224.614 C 489.464 215.175 460.14 205.576 462.261 176.562 z"/>
<path transform="translate(0,0)" fill="rgb(255,255,255)" d="M 455.159 656.075 C 459.354 656.815 463.848 657.689 468.06 658.141 C 482.766 659.719 496.861 654.812 511.506 658.572 C 528.46 662.925 544.213 663.29 561.503 662.88 L 549.86 671.098 C 513.425 694.757 484.781 684.128 455.159 656.075 z"/>
<path transform="translate(0,0)" fill="rgb(255,255,255)" d="M 559.691 153.005 C 576.018 152.54 588.048 155.859 596.672 171.575 C 598.749 175.36 599.473 179.069 597.986 183.195 C 595.183 185.691 595.716 184.905 591.014 185.043 C 577.775 184.869 560.749 182.308 552.342 171.053 C 547.067 163.99 554.235 156.783 559.691 153.005 z"/>
<path transform="translate(0,0)" fill="rgb(255,255,255)" d="M 590.58 143.852 C 610.023 144.334 635.189 161.574 637.138 181.569 C 637.895 189.339 636.306 193.898 633.881 200.986 C 632.899 203.082 632.895 203.202 630.951 204.306 C 619.809 200.257 609.423 165.201 604.223 155.607 C 602.418 152.276 593.976 146.316 590.58 143.852 z"/>
<path transform="translate(0,0)" fill="rgb(255,255,255)" d="M 435.91 612.112 C 441.198 615.705 449.171 625.62 455.185 630.182 C 462.071 635.406 468.086 639.924 475.283 644.761 L 458.695 643.698 C 436.09 640.639 430.452 633.116 414.74 617.911 C 423.45 616.749 427.858 615.151 435.91 612.112 z"/>
</svg>